G04 #@! TF.GenerationSoftware,KiCad,Pcbnew,(5.1.8)-1*
G04 #@! TF.CreationDate,2024-04-17T03:42:13-06:00*
G04 #@! TF.ProjectId,Simple_8088,53696d70-6c65-45f3-9830-38382e6b6963,rev?*
G04 #@! TF.SameCoordinates,Original*
G04 #@! TF.FileFunction,Legend,Top*
G04 #@! TF.FilePolarity,Positive*
%FSLAX46Y46*%
G04 Gerber Fmt 4.6, Leading zero omitted, Abs format (unit mm)*
G04 Created by KiCad (PCBNEW (5.1.8)-1) date 2024-04-17 03:42:13*
%MOMM*%
%LPD*%
G01*
G04 APERTURE LIST*
%ADD10C,0.150000*%
%ADD11C,0.127000*%
%ADD12C,0.120000*%
G04 APERTURE END LIST*
D10*
X144773571Y-137332404D02*
X144773571Y-136999071D01*
X145297380Y-136856214D02*
X145297380Y-137332404D01*
X144297380Y-137332404D01*
X144297380Y-136856214D01*
X145297380Y-136427642D02*
X144297380Y-136427642D01*
X145011666Y-136094309D01*
X144297380Y-135760976D01*
X145297380Y-135760976D01*
X145297380Y-135284785D02*
X144297380Y-135284785D01*
X145011666Y-134951452D01*
X144297380Y-134618119D01*
X145297380Y-134618119D01*
X145202142Y-132808595D02*
X145249761Y-132856214D01*
X145297380Y-132999071D01*
X145297380Y-133094309D01*
X145249761Y-133237166D01*
X145154523Y-133332404D01*
X145059285Y-133380023D01*
X144868809Y-133427642D01*
X144725952Y-133427642D01*
X144535476Y-133380023D01*
X144440238Y-133332404D01*
X144345000Y-133237166D01*
X144297380Y-133094309D01*
X144297380Y-132999071D01*
X144345000Y-132856214D01*
X144392619Y-132808595D01*
X144297380Y-132189547D02*
X144297380Y-131999071D01*
X144345000Y-131903833D01*
X144440238Y-131808595D01*
X144630714Y-131760976D01*
X144964047Y-131760976D01*
X145154523Y-131808595D01*
X145249761Y-131903833D01*
X145297380Y-131999071D01*
X145297380Y-132189547D01*
X145249761Y-132284785D01*
X145154523Y-132380023D01*
X144964047Y-132427642D01*
X144630714Y-132427642D01*
X144440238Y-132380023D01*
X144345000Y-132284785D01*
X144297380Y-132189547D01*
X145297380Y-131332404D02*
X144297380Y-131332404D01*
X145011666Y-130999071D01*
X144297380Y-130665738D01*
X145297380Y-130665738D01*
X145297380Y-130189547D02*
X144297380Y-130189547D01*
X144297380Y-129808595D01*
X144345000Y-129713357D01*
X144392619Y-129665738D01*
X144487857Y-129618119D01*
X144630714Y-129618119D01*
X144725952Y-129665738D01*
X144773571Y-129713357D01*
X144821190Y-129808595D01*
X144821190Y-130189547D01*
X144297380Y-129189547D02*
X145106904Y-129189547D01*
X145202142Y-129141928D01*
X145249761Y-129094309D01*
X145297380Y-128999071D01*
X145297380Y-128808595D01*
X145249761Y-128713357D01*
X145202142Y-128665738D01*
X145106904Y-128618119D01*
X144297380Y-128618119D01*
X144297380Y-128284785D02*
X144297380Y-127713357D01*
X145297380Y-127999071D02*
X144297380Y-127999071D01*
X144773571Y-127380023D02*
X144773571Y-127046690D01*
X145297380Y-126903833D02*
X145297380Y-127380023D01*
X144297380Y-127380023D01*
X144297380Y-126903833D01*
X145297380Y-125903833D02*
X144821190Y-126237166D01*
X145297380Y-126475261D02*
X144297380Y-126475261D01*
X144297380Y-126094309D01*
X144345000Y-125999071D01*
X144392619Y-125951452D01*
X144487857Y-125903833D01*
X144630714Y-125903833D01*
X144725952Y-125951452D01*
X144773571Y-125999071D01*
X144821190Y-126094309D01*
X144821190Y-126475261D01*
X145249761Y-125522880D02*
X145297380Y-125380023D01*
X145297380Y-125141928D01*
X145249761Y-125046690D01*
X145202142Y-124999071D01*
X145106904Y-124951452D01*
X145011666Y-124951452D01*
X144916428Y-124999071D01*
X144868809Y-125046690D01*
X144821190Y-125141928D01*
X144773571Y-125332404D01*
X144725952Y-125427642D01*
X144678333Y-125475261D01*
X144583095Y-125522880D01*
X144487857Y-125522880D01*
X144392619Y-125475261D01*
X144345000Y-125427642D01*
X144297380Y-125332404D01*
X144297380Y-125094309D01*
X144345000Y-124951452D01*
X146375952Y-137189547D02*
X146328333Y-137284785D01*
X146280714Y-137332404D01*
X146185476Y-137380023D01*
X146137857Y-137380023D01*
X146042619Y-137332404D01*
X145995000Y-137284785D01*
X145947380Y-137189547D01*
X145947380Y-136999071D01*
X145995000Y-136903833D01*
X146042619Y-136856214D01*
X146137857Y-136808595D01*
X146185476Y-136808595D01*
X146280714Y-136856214D01*
X146328333Y-136903833D01*
X146375952Y-136999071D01*
X146375952Y-137189547D01*
X146423571Y-137284785D01*
X146471190Y-137332404D01*
X146566428Y-137380023D01*
X146756904Y-137380023D01*
X146852142Y-137332404D01*
X146899761Y-137284785D01*
X146947380Y-137189547D01*
X146947380Y-136999071D01*
X146899761Y-136903833D01*
X146852142Y-136856214D01*
X146756904Y-136808595D01*
X146566428Y-136808595D01*
X146471190Y-136856214D01*
X146423571Y-136903833D01*
X146375952Y-136999071D01*
X145947380Y-136189547D02*
X145947380Y-136094309D01*
X145995000Y-135999071D01*
X146042619Y-135951452D01*
X146137857Y-135903833D01*
X146328333Y-135856214D01*
X146566428Y-135856214D01*
X146756904Y-135903833D01*
X146852142Y-135951452D01*
X146899761Y-135999071D01*
X146947380Y-136094309D01*
X146947380Y-136189547D01*
X146899761Y-136284785D01*
X146852142Y-136332404D01*
X146756904Y-136380023D01*
X146566428Y-136427642D01*
X146328333Y-136427642D01*
X146137857Y-136380023D01*
X146042619Y-136332404D01*
X145995000Y-136284785D01*
X145947380Y-136189547D01*
X146375952Y-135284785D02*
X146328333Y-135380023D01*
X146280714Y-135427642D01*
X146185476Y-135475261D01*
X146137857Y-135475261D01*
X146042619Y-135427642D01*
X145995000Y-135380023D01*
X145947380Y-135284785D01*
X145947380Y-135094309D01*
X145995000Y-134999071D01*
X146042619Y-134951452D01*
X146137857Y-134903833D01*
X146185476Y-134903833D01*
X146280714Y-134951452D01*
X146328333Y-134999071D01*
X146375952Y-135094309D01*
X146375952Y-135284785D01*
X146423571Y-135380023D01*
X146471190Y-135427642D01*
X146566428Y-135475261D01*
X146756904Y-135475261D01*
X146852142Y-135427642D01*
X146899761Y-135380023D01*
X146947380Y-135284785D01*
X146947380Y-135094309D01*
X146899761Y-134999071D01*
X146852142Y-134951452D01*
X146756904Y-134903833D01*
X146566428Y-134903833D01*
X146471190Y-134951452D01*
X146423571Y-134999071D01*
X146375952Y-135094309D01*
X146375952Y-134332404D02*
X146328333Y-134427642D01*
X146280714Y-134475261D01*
X146185476Y-134522880D01*
X146137857Y-134522880D01*
X146042619Y-134475261D01*
X145995000Y-134427642D01*
X145947380Y-134332404D01*
X145947380Y-134141928D01*
X145995000Y-134046690D01*
X146042619Y-133999071D01*
X146137857Y-133951452D01*
X146185476Y-133951452D01*
X146280714Y-133999071D01*
X146328333Y-134046690D01*
X146375952Y-134141928D01*
X146375952Y-134332404D01*
X146423571Y-134427642D01*
X146471190Y-134475261D01*
X146566428Y-134522880D01*
X146756904Y-134522880D01*
X146852142Y-134475261D01*
X146899761Y-134427642D01*
X146947380Y-134332404D01*
X146947380Y-134141928D01*
X146899761Y-134046690D01*
X146852142Y-133999071D01*
X146756904Y-133951452D01*
X146566428Y-133951452D01*
X146471190Y-133999071D01*
X146423571Y-134046690D01*
X146375952Y-134141928D01*
X145899761Y-132808595D02*
X147185476Y-133665738D01*
X145947380Y-132618119D02*
X146947380Y-132284785D01*
X145947380Y-131951452D01*
X146042619Y-131665738D02*
X145995000Y-131618119D01*
X145947380Y-131522880D01*
X145947380Y-131284785D01*
X145995000Y-131189547D01*
X146042619Y-131141928D01*
X146137857Y-131094309D01*
X146233095Y-131094309D01*
X146375952Y-131141928D01*
X146947380Y-131713357D01*
X146947380Y-131094309D01*
X145947380Y-130475261D02*
X145947380Y-130380023D01*
X145995000Y-130284785D01*
X146042619Y-130237166D01*
X146137857Y-130189547D01*
X146328333Y-130141928D01*
X146566428Y-130141928D01*
X146756904Y-130189547D01*
X146852142Y-130237166D01*
X146899761Y-130284785D01*
X146947380Y-130380023D01*
X146947380Y-130475261D01*
X146899761Y-130570500D01*
X146852142Y-130618119D01*
X146756904Y-130665738D01*
X146566428Y-130713357D01*
X146328333Y-130713357D01*
X146137857Y-130665738D01*
X146042619Y-130618119D01*
X145995000Y-130570500D01*
X145947380Y-130475261D01*
X146947380Y-128951452D02*
X145947380Y-128951452D01*
X145947380Y-128570500D01*
X145995000Y-128475261D01*
X146042619Y-128427642D01*
X146137857Y-128380023D01*
X146280714Y-128380023D01*
X146375952Y-128427642D01*
X146423571Y-128475261D01*
X146471190Y-128570500D01*
X146471190Y-128951452D01*
X146947380Y-127380023D02*
X146471190Y-127713357D01*
X146947380Y-127951452D02*
X145947380Y-127951452D01*
X145947380Y-127570500D01*
X145995000Y-127475261D01*
X146042619Y-127427642D01*
X146137857Y-127380023D01*
X146280714Y-127380023D01*
X146375952Y-127427642D01*
X146423571Y-127475261D01*
X146471190Y-127570500D01*
X146471190Y-127951452D01*
X145947380Y-126760976D02*
X145947380Y-126570500D01*
X145995000Y-126475261D01*
X146090238Y-126380023D01*
X146280714Y-126332404D01*
X146614047Y-126332404D01*
X146804523Y-126380023D01*
X146899761Y-126475261D01*
X146947380Y-126570500D01*
X146947380Y-126760976D01*
X146899761Y-126856214D01*
X146804523Y-126951452D01*
X146614047Y-126999071D01*
X146280714Y-126999071D01*
X146090238Y-126951452D01*
X145995000Y-126856214D01*
X145947380Y-126760976D01*
X146852142Y-125332404D02*
X146899761Y-125380023D01*
X146947380Y-125522880D01*
X146947380Y-125618119D01*
X146899761Y-125760976D01*
X146804523Y-125856214D01*
X146709285Y-125903833D01*
X146518809Y-125951452D01*
X146375952Y-125951452D01*
X146185476Y-125903833D01*
X146090238Y-125856214D01*
X145995000Y-125760976D01*
X145947380Y-125618119D01*
X145947380Y-125522880D01*
X145995000Y-125380023D01*
X146042619Y-125332404D01*
X146423571Y-124903833D02*
X146423571Y-124570500D01*
X146947380Y-124427642D02*
X146947380Y-124903833D01*
X145947380Y-124903833D01*
X145947380Y-124427642D01*
X146899761Y-124046690D02*
X146947380Y-123903833D01*
X146947380Y-123665738D01*
X146899761Y-123570500D01*
X146852142Y-123522880D01*
X146756904Y-123475261D01*
X146661666Y-123475261D01*
X146566428Y-123522880D01*
X146518809Y-123570500D01*
X146471190Y-123665738D01*
X146423571Y-123856214D01*
X146375952Y-123951452D01*
X146328333Y-123999071D01*
X146233095Y-124046690D01*
X146137857Y-124046690D01*
X146042619Y-123999071D01*
X145995000Y-123951452D01*
X145947380Y-123856214D01*
X145947380Y-123618119D01*
X145995000Y-123475261D01*
X146899761Y-123094309D02*
X146947380Y-122951452D01*
X146947380Y-122713357D01*
X146899761Y-122618119D01*
X146852142Y-122570500D01*
X146756904Y-122522880D01*
X146661666Y-122522880D01*
X146566428Y-122570500D01*
X146518809Y-122618119D01*
X146471190Y-122713357D01*
X146423571Y-122903833D01*
X146375952Y-122999071D01*
X146328333Y-123046690D01*
X146233095Y-123094309D01*
X146137857Y-123094309D01*
X146042619Y-123046690D01*
X145995000Y-122999071D01*
X145947380Y-122903833D01*
X145947380Y-122665738D01*
X145995000Y-122522880D01*
X145947380Y-121903833D02*
X145947380Y-121713357D01*
X145995000Y-121618119D01*
X146090238Y-121522880D01*
X146280714Y-121475261D01*
X146614047Y-121475261D01*
X146804523Y-121522880D01*
X146899761Y-121618119D01*
X146947380Y-121713357D01*
X146947380Y-121903833D01*
X146899761Y-121999071D01*
X146804523Y-122094309D01*
X146614047Y-122141928D01*
X146280714Y-122141928D01*
X146090238Y-122094309D01*
X145995000Y-121999071D01*
X145947380Y-121903833D01*
X146947380Y-120475261D02*
X146471190Y-120808595D01*
X146947380Y-121046690D02*
X145947380Y-121046690D01*
X145947380Y-120665738D01*
X145995000Y-120570500D01*
X146042619Y-120522880D01*
X146137857Y-120475261D01*
X146280714Y-120475261D01*
X146375952Y-120522880D01*
X146423571Y-120570500D01*
X146471190Y-120665738D01*
X146471190Y-121046690D01*
X146899761Y-119999071D02*
X146947380Y-119999071D01*
X147042619Y-120046690D01*
X147090238Y-120094309D01*
X145947380Y-118903833D02*
X145947380Y-118284785D01*
X146328333Y-118618119D01*
X146328333Y-118475261D01*
X146375952Y-118380023D01*
X146423571Y-118332404D01*
X146518809Y-118284785D01*
X146756904Y-118284785D01*
X146852142Y-118332404D01*
X146899761Y-118380023D01*
X146947380Y-118475261D01*
X146947380Y-118760976D01*
X146899761Y-118856214D01*
X146852142Y-118903833D01*
X146042619Y-117903833D02*
X145995000Y-117856214D01*
X145947380Y-117760976D01*
X145947380Y-117522880D01*
X145995000Y-117427642D01*
X146042619Y-117380023D01*
X146137857Y-117332404D01*
X146233095Y-117332404D01*
X146375952Y-117380023D01*
X146947380Y-117951452D01*
X146947380Y-117332404D01*
X146947380Y-116903833D02*
X145947380Y-116903833D01*
X146947380Y-116332404D02*
X146375952Y-116760976D01*
X145947380Y-116332404D02*
X146518809Y-116903833D01*
X146947380Y-114570500D02*
X146471190Y-114903833D01*
X146947380Y-115141928D02*
X145947380Y-115141928D01*
X145947380Y-114760976D01*
X145995000Y-114665738D01*
X146042619Y-114618119D01*
X146137857Y-114570500D01*
X146280714Y-114570500D01*
X146375952Y-114618119D01*
X146423571Y-114665738D01*
X146471190Y-114760976D01*
X146471190Y-115141928D01*
X145947380Y-113951452D02*
X145947380Y-113760976D01*
X145995000Y-113665738D01*
X146090238Y-113570500D01*
X146280714Y-113522880D01*
X146614047Y-113522880D01*
X146804523Y-113570500D01*
X146899761Y-113665738D01*
X146947380Y-113760976D01*
X146947380Y-113951452D01*
X146899761Y-114046690D01*
X146804523Y-114141928D01*
X146614047Y-114189547D01*
X146280714Y-114189547D01*
X146090238Y-114141928D01*
X145995000Y-114046690D01*
X145947380Y-113951452D01*
X146947380Y-113094309D02*
X145947380Y-113094309D01*
X146661666Y-112760976D01*
X145947380Y-112427642D01*
X146947380Y-112427642D01*
X146899761Y-111903833D02*
X146947380Y-111903833D01*
X147042619Y-111951452D01*
X147090238Y-111999071D01*
X145947380Y-110808595D02*
X145947380Y-110189547D01*
X146328333Y-110522880D01*
X146328333Y-110380023D01*
X146375952Y-110284785D01*
X146423571Y-110237166D01*
X146518809Y-110189547D01*
X146756904Y-110189547D01*
X146852142Y-110237166D01*
X146899761Y-110284785D01*
X146947380Y-110380023D01*
X146947380Y-110665738D01*
X146899761Y-110760976D01*
X146852142Y-110808595D01*
X146042619Y-109808595D02*
X145995000Y-109760976D01*
X145947380Y-109665738D01*
X145947380Y-109427642D01*
X145995000Y-109332404D01*
X146042619Y-109284785D01*
X146137857Y-109237166D01*
X146233095Y-109237166D01*
X146375952Y-109284785D01*
X146947380Y-109856214D01*
X146947380Y-109237166D01*
X146947380Y-107475261D02*
X146471190Y-107808595D01*
X146947380Y-108046690D02*
X145947380Y-108046690D01*
X145947380Y-107665738D01*
X145995000Y-107570500D01*
X146042619Y-107522880D01*
X146137857Y-107475261D01*
X146280714Y-107475261D01*
X146375952Y-107522880D01*
X146423571Y-107570500D01*
X146471190Y-107665738D01*
X146471190Y-108046690D01*
X146661666Y-107094309D02*
X146661666Y-106618119D01*
X146947380Y-107189547D02*
X145947380Y-106856214D01*
X146947380Y-106522880D01*
X146947380Y-106189547D02*
X145947380Y-106189547D01*
X146661666Y-105856214D01*
X145947380Y-105522880D01*
X146947380Y-105522880D01*
X148502142Y-136760976D02*
X148549761Y-136808595D01*
X148597380Y-136951452D01*
X148597380Y-137046690D01*
X148549761Y-137189547D01*
X148454523Y-137284785D01*
X148359285Y-137332404D01*
X148168809Y-137380023D01*
X148025952Y-137380023D01*
X147835476Y-137332404D01*
X147740238Y-137284785D01*
X147645000Y-137189547D01*
X147597380Y-137046690D01*
X147597380Y-136951452D01*
X147645000Y-136808595D01*
X147692619Y-136760976D01*
X148597380Y-136189547D02*
X148549761Y-136284785D01*
X148502142Y-136332404D01*
X148406904Y-136380023D01*
X148121190Y-136380023D01*
X148025952Y-136332404D01*
X147978333Y-136284785D01*
X147930714Y-136189547D01*
X147930714Y-136046690D01*
X147978333Y-135951452D01*
X148025952Y-135903833D01*
X148121190Y-135856214D01*
X148406904Y-135856214D01*
X148502142Y-135903833D01*
X148549761Y-135951452D01*
X148597380Y-136046690D01*
X148597380Y-136189547D01*
X147930714Y-135427642D02*
X148930714Y-135427642D01*
X147978333Y-135427642D02*
X147930714Y-135332404D01*
X147930714Y-135141928D01*
X147978333Y-135046690D01*
X148025952Y-134999071D01*
X148121190Y-134951452D01*
X148406904Y-134951452D01*
X148502142Y-134999071D01*
X148549761Y-135046690D01*
X148597380Y-135141928D01*
X148597380Y-135332404D01*
X148549761Y-135427642D01*
X147930714Y-134618119D02*
X148597380Y-134380023D01*
X147930714Y-134141928D02*
X148597380Y-134380023D01*
X148835476Y-134475261D01*
X148883095Y-134522880D01*
X148930714Y-134618119D01*
X148597380Y-133760976D02*
X147930714Y-133760976D01*
X148121190Y-133760976D02*
X148025952Y-133713357D01*
X147978333Y-133665738D01*
X147930714Y-133570500D01*
X147930714Y-133475261D01*
X148597380Y-133141928D02*
X147930714Y-133141928D01*
X147597380Y-133141928D02*
X147645000Y-133189547D01*
X147692619Y-133141928D01*
X147645000Y-133094309D01*
X147597380Y-133141928D01*
X147692619Y-133141928D01*
X147930714Y-132237166D02*
X148740238Y-132237166D01*
X148835476Y-132284785D01*
X148883095Y-132332404D01*
X148930714Y-132427642D01*
X148930714Y-132570500D01*
X148883095Y-132665738D01*
X148549761Y-132237166D02*
X148597380Y-132332404D01*
X148597380Y-132522880D01*
X148549761Y-132618119D01*
X148502142Y-132665738D01*
X148406904Y-132713357D01*
X148121190Y-132713357D01*
X148025952Y-132665738D01*
X147978333Y-132618119D01*
X147930714Y-132522880D01*
X147930714Y-132332404D01*
X147978333Y-132237166D01*
X148597380Y-131760976D02*
X147597380Y-131760976D01*
X148597380Y-131332404D02*
X148073571Y-131332404D01*
X147978333Y-131380023D01*
X147930714Y-131475261D01*
X147930714Y-131618119D01*
X147978333Y-131713357D01*
X148025952Y-131760976D01*
X147930714Y-130999071D02*
X147930714Y-130618119D01*
X147597380Y-130856214D02*
X148454523Y-130856214D01*
X148549761Y-130808595D01*
X148597380Y-130713357D01*
X148597380Y-130618119D01*
X148978333Y-129237166D02*
X148930714Y-129284785D01*
X148787857Y-129380023D01*
X148692619Y-129427642D01*
X148549761Y-129475261D01*
X148311666Y-129522880D01*
X148121190Y-129522880D01*
X147883095Y-129475261D01*
X147740238Y-129427642D01*
X147645000Y-129380023D01*
X147502142Y-129284785D01*
X147454523Y-129237166D01*
X148502142Y-128284785D02*
X148549761Y-128332404D01*
X148597380Y-128475261D01*
X148597380Y-128570500D01*
X148549761Y-128713357D01*
X148454523Y-128808595D01*
X148359285Y-128856214D01*
X148168809Y-128903833D01*
X148025952Y-128903833D01*
X147835476Y-128856214D01*
X147740238Y-128808595D01*
X147645000Y-128713357D01*
X147597380Y-128570500D01*
X147597380Y-128475261D01*
X147645000Y-128332404D01*
X147692619Y-128284785D01*
X148978333Y-127951452D02*
X148930714Y-127903833D01*
X148787857Y-127808595D01*
X148692619Y-127760976D01*
X148549761Y-127713357D01*
X148311666Y-127665738D01*
X148121190Y-127665738D01*
X147883095Y-127713357D01*
X147740238Y-127760976D01*
X147645000Y-127808595D01*
X147502142Y-127903833D01*
X147454523Y-127951452D01*
X147692619Y-126475261D02*
X147645000Y-126427642D01*
X147597380Y-126332404D01*
X147597380Y-126094309D01*
X147645000Y-125999071D01*
X147692619Y-125951452D01*
X147787857Y-125903833D01*
X147883095Y-125903833D01*
X148025952Y-125951452D01*
X148597380Y-126522880D01*
X148597380Y-125903833D01*
X147597380Y-125284785D02*
X147597380Y-125189547D01*
X147645000Y-125094309D01*
X147692619Y-125046690D01*
X147787857Y-124999071D01*
X147978333Y-124951452D01*
X148216428Y-124951452D01*
X148406904Y-124999071D01*
X148502142Y-125046690D01*
X148549761Y-125094309D01*
X148597380Y-125189547D01*
X148597380Y-125284785D01*
X148549761Y-125380023D01*
X148502142Y-125427642D01*
X148406904Y-125475261D01*
X148216428Y-125522880D01*
X147978333Y-125522880D01*
X147787857Y-125475261D01*
X147692619Y-125427642D01*
X147645000Y-125380023D01*
X147597380Y-125284785D01*
X147692619Y-124570500D02*
X147645000Y-124522880D01*
X147597380Y-124427642D01*
X147597380Y-124189547D01*
X147645000Y-124094309D01*
X147692619Y-124046690D01*
X147787857Y-123999071D01*
X147883095Y-123999071D01*
X148025952Y-124046690D01*
X148597380Y-124618119D01*
X148597380Y-123999071D01*
X147930714Y-123141928D02*
X148597380Y-123141928D01*
X147549761Y-123380023D02*
X148264047Y-123618119D01*
X148264047Y-122999071D01*
X148073571Y-121856214D02*
X148073571Y-121522880D01*
X148597380Y-121380023D02*
X148597380Y-121856214D01*
X147597380Y-121856214D01*
X147597380Y-121380023D01*
X148597380Y-120951452D02*
X147597380Y-120951452D01*
X148311666Y-120618119D01*
X147597380Y-120284785D01*
X148597380Y-120284785D01*
X148597380Y-119808595D02*
X147597380Y-119808595D01*
X148311666Y-119475261D01*
X147597380Y-119141928D01*
X148597380Y-119141928D01*
X149580714Y-137427642D02*
X150247380Y-137237166D01*
X149771190Y-137046690D01*
X150247380Y-136856214D01*
X149580714Y-136665738D01*
X149580714Y-136380023D02*
X150247380Y-136189547D01*
X149771190Y-135999071D01*
X150247380Y-135808595D01*
X149580714Y-135618119D01*
X149580714Y-135332404D02*
X150247380Y-135141928D01*
X149771190Y-134951452D01*
X150247380Y-134760976D01*
X149580714Y-134570500D01*
X150152142Y-134189547D02*
X150199761Y-134141928D01*
X150247380Y-134189547D01*
X150199761Y-134237166D01*
X150152142Y-134189547D01*
X150247380Y-134189547D01*
X150247380Y-133713357D02*
X149247380Y-133713357D01*
X150247380Y-133284785D02*
X149723571Y-133284785D01*
X149628333Y-133332404D01*
X149580714Y-133427642D01*
X149580714Y-133570500D01*
X149628333Y-133665738D01*
X149675952Y-133713357D01*
X150247380Y-132665738D02*
X150199761Y-132760976D01*
X150152142Y-132808595D01*
X150056904Y-132856214D01*
X149771190Y-132856214D01*
X149675952Y-132808595D01*
X149628333Y-132760976D01*
X149580714Y-132665738D01*
X149580714Y-132522880D01*
X149628333Y-132427642D01*
X149675952Y-132380023D01*
X149771190Y-132332404D01*
X150056904Y-132332404D01*
X150152142Y-132380023D01*
X150199761Y-132427642D01*
X150247380Y-132522880D01*
X150247380Y-132665738D01*
X150247380Y-131903833D02*
X149580714Y-131903833D01*
X149675952Y-131903833D02*
X149628333Y-131856214D01*
X149580714Y-131760976D01*
X149580714Y-131618119D01*
X149628333Y-131522880D01*
X149723571Y-131475261D01*
X150247380Y-131475261D01*
X149723571Y-131475261D02*
X149628333Y-131427642D01*
X149580714Y-131332404D01*
X149580714Y-131189547D01*
X149628333Y-131094309D01*
X149723571Y-131046690D01*
X150247380Y-131046690D01*
X150199761Y-130189547D02*
X150247380Y-130284785D01*
X150247380Y-130475261D01*
X150199761Y-130570500D01*
X150104523Y-130618119D01*
X149723571Y-130618119D01*
X149628333Y-130570500D01*
X149580714Y-130475261D01*
X149580714Y-130284785D01*
X149628333Y-130189547D01*
X149723571Y-130141928D01*
X149818809Y-130141928D01*
X149914047Y-130618119D01*
X150247380Y-129713357D02*
X149247380Y-129713357D01*
X149628333Y-129713357D02*
X149580714Y-129618119D01*
X149580714Y-129427642D01*
X149628333Y-129332404D01*
X149675952Y-129284785D01*
X149771190Y-129237166D01*
X150056904Y-129237166D01*
X150152142Y-129284785D01*
X150199761Y-129332404D01*
X150247380Y-129427642D01*
X150247380Y-129618119D01*
X150199761Y-129713357D01*
X150247380Y-128808595D02*
X149580714Y-128808595D01*
X149771190Y-128808595D02*
X149675952Y-128760976D01*
X149628333Y-128713357D01*
X149580714Y-128618119D01*
X149580714Y-128522880D01*
X150199761Y-127808595D02*
X150247380Y-127903833D01*
X150247380Y-128094309D01*
X150199761Y-128189547D01*
X150104523Y-128237166D01*
X149723571Y-128237166D01*
X149628333Y-128189547D01*
X149580714Y-128094309D01*
X149580714Y-127903833D01*
X149628333Y-127808595D01*
X149723571Y-127760976D01*
X149818809Y-127760976D01*
X149914047Y-128237166D01*
X149580714Y-127427642D02*
X150247380Y-127237166D01*
X149771190Y-127046690D01*
X150247380Y-126856214D01*
X149580714Y-126665738D01*
X149675952Y-126141928D02*
X149628333Y-126237166D01*
X149580714Y-126284785D01*
X149485476Y-126332404D01*
X149437857Y-126332404D01*
X149342619Y-126284785D01*
X149295000Y-126237166D01*
X149247380Y-126141928D01*
X149247380Y-125951452D01*
X149295000Y-125856214D01*
X149342619Y-125808595D01*
X149437857Y-125760976D01*
X149485476Y-125760976D01*
X149580714Y-125808595D01*
X149628333Y-125856214D01*
X149675952Y-125951452D01*
X149675952Y-126141928D01*
X149723571Y-126237166D01*
X149771190Y-126284785D01*
X149866428Y-126332404D01*
X150056904Y-126332404D01*
X150152142Y-126284785D01*
X150199761Y-126237166D01*
X150247380Y-126141928D01*
X150247380Y-125951452D01*
X150199761Y-125856214D01*
X150152142Y-125808595D01*
X150056904Y-125760976D01*
X149866428Y-125760976D01*
X149771190Y-125808595D01*
X149723571Y-125856214D01*
X149675952Y-125951452D01*
X149247380Y-125141928D02*
X149247380Y-125046690D01*
X149295000Y-124951452D01*
X149342619Y-124903833D01*
X149437857Y-124856214D01*
X149628333Y-124808595D01*
X149866428Y-124808595D01*
X150056904Y-124856214D01*
X150152142Y-124903833D01*
X150199761Y-124951452D01*
X150247380Y-125046690D01*
X150247380Y-125141928D01*
X150199761Y-125237166D01*
X150152142Y-125284785D01*
X150056904Y-125332404D01*
X149866428Y-125380023D01*
X149628333Y-125380023D01*
X149437857Y-125332404D01*
X149342619Y-125284785D01*
X149295000Y-125237166D01*
X149247380Y-125141928D01*
X149675952Y-124237166D02*
X149628333Y-124332404D01*
X149580714Y-124380023D01*
X149485476Y-124427642D01*
X149437857Y-124427642D01*
X149342619Y-124380023D01*
X149295000Y-124332404D01*
X149247380Y-124237166D01*
X149247380Y-124046690D01*
X149295000Y-123951452D01*
X149342619Y-123903833D01*
X149437857Y-123856214D01*
X149485476Y-123856214D01*
X149580714Y-123903833D01*
X149628333Y-123951452D01*
X149675952Y-124046690D01*
X149675952Y-124237166D01*
X149723571Y-124332404D01*
X149771190Y-124380023D01*
X149866428Y-124427642D01*
X150056904Y-124427642D01*
X150152142Y-124380023D01*
X150199761Y-124332404D01*
X150247380Y-124237166D01*
X150247380Y-124046690D01*
X150199761Y-123951452D01*
X150152142Y-123903833D01*
X150056904Y-123856214D01*
X149866428Y-123856214D01*
X149771190Y-123903833D01*
X149723571Y-123951452D01*
X149675952Y-124046690D01*
X149675952Y-123284785D02*
X149628333Y-123380023D01*
X149580714Y-123427642D01*
X149485476Y-123475261D01*
X149437857Y-123475261D01*
X149342619Y-123427642D01*
X149295000Y-123380023D01*
X149247380Y-123284785D01*
X149247380Y-123094309D01*
X149295000Y-122999071D01*
X149342619Y-122951452D01*
X149437857Y-122903833D01*
X149485476Y-122903833D01*
X149580714Y-122951452D01*
X149628333Y-122999071D01*
X149675952Y-123094309D01*
X149675952Y-123284785D01*
X149723571Y-123380023D01*
X149771190Y-123427642D01*
X149866428Y-123475261D01*
X150056904Y-123475261D01*
X150152142Y-123427642D01*
X150199761Y-123380023D01*
X150247380Y-123284785D01*
X150247380Y-123094309D01*
X150199761Y-122999071D01*
X150152142Y-122951452D01*
X150056904Y-122903833D01*
X149866428Y-122903833D01*
X149771190Y-122951452D01*
X149723571Y-122999071D01*
X149675952Y-123094309D01*
X150152142Y-122475261D02*
X150199761Y-122427642D01*
X150247380Y-122475261D01*
X150199761Y-122522880D01*
X150152142Y-122475261D01*
X150247380Y-122475261D01*
X150199761Y-121570500D02*
X150247380Y-121665738D01*
X150247380Y-121856214D01*
X150199761Y-121951452D01*
X150152142Y-121999071D01*
X150056904Y-122046690D01*
X149771190Y-122046690D01*
X149675952Y-121999071D01*
X149628333Y-121951452D01*
X149580714Y-121856214D01*
X149580714Y-121665738D01*
X149628333Y-121570500D01*
X150247380Y-120999071D02*
X150199761Y-121094309D01*
X150152142Y-121141928D01*
X150056904Y-121189547D01*
X149771190Y-121189547D01*
X149675952Y-121141928D01*
X149628333Y-121094309D01*
X149580714Y-120999071D01*
X149580714Y-120856214D01*
X149628333Y-120760976D01*
X149675952Y-120713357D01*
X149771190Y-120665738D01*
X150056904Y-120665738D01*
X150152142Y-120713357D01*
X150199761Y-120760976D01*
X150247380Y-120856214D01*
X150247380Y-120999071D01*
X150247380Y-120237166D02*
X149580714Y-120237166D01*
X149675952Y-120237166D02*
X149628333Y-120189547D01*
X149580714Y-120094309D01*
X149580714Y-119951452D01*
X149628333Y-119856214D01*
X149723571Y-119808595D01*
X150247380Y-119808595D01*
X149723571Y-119808595D02*
X149628333Y-119760976D01*
X149580714Y-119665738D01*
X149580714Y-119522880D01*
X149628333Y-119427642D01*
X149723571Y-119380023D01*
X150247380Y-119380023D01*
X188984000Y-136373809D02*
X188936380Y-136434285D01*
X188936380Y-136525000D01*
X188984000Y-136615714D01*
X189079238Y-136676190D01*
X189174476Y-136706428D01*
X189364952Y-136736666D01*
X189507809Y-136736666D01*
X189698285Y-136706428D01*
X189793523Y-136676190D01*
X189888761Y-136615714D01*
X189936380Y-136525000D01*
X189936380Y-136464523D01*
X189888761Y-136373809D01*
X189841142Y-136343571D01*
X189507809Y-136343571D01*
X189507809Y-136464523D01*
X189936380Y-136071428D02*
X188936380Y-136071428D01*
X189936380Y-135708571D01*
X188936380Y-135708571D01*
X189936380Y-135406190D02*
X188936380Y-135406190D01*
X188936380Y-135255000D01*
X188984000Y-135164285D01*
X189079238Y-135103809D01*
X189174476Y-135073571D01*
X189364952Y-135043333D01*
X189507809Y-135043333D01*
X189698285Y-135073571D01*
X189793523Y-135103809D01*
X189888761Y-135164285D01*
X189936380Y-135255000D01*
X189936380Y-135406190D01*
X188936380Y-138810952D02*
X188936380Y-139287142D01*
X189412571Y-139334761D01*
X189364952Y-139287142D01*
X189317333Y-139191904D01*
X189317333Y-138953809D01*
X189364952Y-138858571D01*
X189412571Y-138810952D01*
X189507809Y-138763333D01*
X189745904Y-138763333D01*
X189841142Y-138810952D01*
X189888761Y-138858571D01*
X189936380Y-138953809D01*
X189936380Y-139191904D01*
X189888761Y-139287142D01*
X189841142Y-139334761D01*
X189555428Y-138334761D02*
X189555428Y-137572857D01*
X189936380Y-137953809D02*
X189174476Y-137953809D01*
X189936380Y-134088095D02*
X188936380Y-134088095D01*
X188936380Y-133850000D01*
X188984000Y-133707142D01*
X189079238Y-133611904D01*
X189174476Y-133564285D01*
X189364952Y-133516666D01*
X189507809Y-133516666D01*
X189698285Y-133564285D01*
X189793523Y-133611904D01*
X189888761Y-133707142D01*
X189936380Y-133850000D01*
X189936380Y-134088095D01*
X188936380Y-132897619D02*
X188936380Y-132802380D01*
X188984000Y-132707142D01*
X189031619Y-132659523D01*
X189126857Y-132611904D01*
X189317333Y-132564285D01*
X189555428Y-132564285D01*
X189745904Y-132611904D01*
X189841142Y-132659523D01*
X189888761Y-132707142D01*
X189936380Y-132802380D01*
X189936380Y-132897619D01*
X189888761Y-132992857D01*
X189841142Y-133040476D01*
X189745904Y-133088095D01*
X189555428Y-133135714D01*
X189317333Y-133135714D01*
X189126857Y-133088095D01*
X189031619Y-133040476D01*
X188984000Y-132992857D01*
X188936380Y-132897619D01*
X189936380Y-131548095D02*
X188936380Y-131548095D01*
X188936380Y-131310000D01*
X188984000Y-131167142D01*
X189079238Y-131071904D01*
X189174476Y-131024285D01*
X189364952Y-130976666D01*
X189507809Y-130976666D01*
X189698285Y-131024285D01*
X189793523Y-131071904D01*
X189888761Y-131167142D01*
X189936380Y-131310000D01*
X189936380Y-131548095D01*
X189936380Y-130024285D02*
X189936380Y-130595714D01*
X189936380Y-130310000D02*
X188936380Y-130310000D01*
X189079238Y-130405238D01*
X189174476Y-130500476D01*
X189222095Y-130595714D01*
X189936380Y-129008095D02*
X188936380Y-129008095D01*
X188936380Y-128770000D01*
X188984000Y-128627142D01*
X189079238Y-128531904D01*
X189174476Y-128484285D01*
X189364952Y-128436666D01*
X189507809Y-128436666D01*
X189698285Y-128484285D01*
X189793523Y-128531904D01*
X189888761Y-128627142D01*
X189936380Y-128770000D01*
X189936380Y-129008095D01*
X189031619Y-128055714D02*
X188984000Y-128008095D01*
X188936380Y-127912857D01*
X188936380Y-127674761D01*
X188984000Y-127579523D01*
X189031619Y-127531904D01*
X189126857Y-127484285D01*
X189222095Y-127484285D01*
X189364952Y-127531904D01*
X189936380Y-128103333D01*
X189936380Y-127484285D01*
X189936380Y-126468095D02*
X188936380Y-126468095D01*
X188936380Y-126230000D01*
X188984000Y-126087142D01*
X189079238Y-125991904D01*
X189174476Y-125944285D01*
X189364952Y-125896666D01*
X189507809Y-125896666D01*
X189698285Y-125944285D01*
X189793523Y-125991904D01*
X189888761Y-126087142D01*
X189936380Y-126230000D01*
X189936380Y-126468095D01*
X188936380Y-125563333D02*
X188936380Y-124944285D01*
X189317333Y-125277619D01*
X189317333Y-125134761D01*
X189364952Y-125039523D01*
X189412571Y-124991904D01*
X189507809Y-124944285D01*
X189745904Y-124944285D01*
X189841142Y-124991904D01*
X189888761Y-125039523D01*
X189936380Y-125134761D01*
X189936380Y-125420476D01*
X189888761Y-125515714D01*
X189841142Y-125563333D01*
X189936380Y-123928095D02*
X188936380Y-123928095D01*
X188936380Y-123690000D01*
X188984000Y-123547142D01*
X189079238Y-123451904D01*
X189174476Y-123404285D01*
X189364952Y-123356666D01*
X189507809Y-123356666D01*
X189698285Y-123404285D01*
X189793523Y-123451904D01*
X189888761Y-123547142D01*
X189936380Y-123690000D01*
X189936380Y-123928095D01*
X189269714Y-122499523D02*
X189936380Y-122499523D01*
X188888761Y-122737619D02*
X189603047Y-122975714D01*
X189603047Y-122356666D01*
X189936380Y-121388095D02*
X188936380Y-121388095D01*
X188936380Y-121150000D01*
X188984000Y-121007142D01*
X189079238Y-120911904D01*
X189174476Y-120864285D01*
X189364952Y-120816666D01*
X189507809Y-120816666D01*
X189698285Y-120864285D01*
X189793523Y-120911904D01*
X189888761Y-121007142D01*
X189936380Y-121150000D01*
X189936380Y-121388095D01*
X188936380Y-119911904D02*
X188936380Y-120388095D01*
X189412571Y-120435714D01*
X189364952Y-120388095D01*
X189317333Y-120292857D01*
X189317333Y-120054761D01*
X189364952Y-119959523D01*
X189412571Y-119911904D01*
X189507809Y-119864285D01*
X189745904Y-119864285D01*
X189841142Y-119911904D01*
X189888761Y-119959523D01*
X189936380Y-120054761D01*
X189936380Y-120292857D01*
X189888761Y-120388095D01*
X189841142Y-120435714D01*
X189936380Y-118848095D02*
X188936380Y-118848095D01*
X188936380Y-118610000D01*
X188984000Y-118467142D01*
X189079238Y-118371904D01*
X189174476Y-118324285D01*
X189364952Y-118276666D01*
X189507809Y-118276666D01*
X189698285Y-118324285D01*
X189793523Y-118371904D01*
X189888761Y-118467142D01*
X189936380Y-118610000D01*
X189936380Y-118848095D01*
X188936380Y-117419523D02*
X188936380Y-117610000D01*
X188984000Y-117705238D01*
X189031619Y-117752857D01*
X189174476Y-117848095D01*
X189364952Y-117895714D01*
X189745904Y-117895714D01*
X189841142Y-117848095D01*
X189888761Y-117800476D01*
X189936380Y-117705238D01*
X189936380Y-117514761D01*
X189888761Y-117419523D01*
X189841142Y-117371904D01*
X189745904Y-117324285D01*
X189507809Y-117324285D01*
X189412571Y-117371904D01*
X189364952Y-117419523D01*
X189317333Y-117514761D01*
X189317333Y-117705238D01*
X189364952Y-117800476D01*
X189412571Y-117848095D01*
X189507809Y-117895714D01*
X189936380Y-116308095D02*
X188936380Y-116308095D01*
X188936380Y-116070000D01*
X188984000Y-115927142D01*
X189079238Y-115831904D01*
X189174476Y-115784285D01*
X189364952Y-115736666D01*
X189507809Y-115736666D01*
X189698285Y-115784285D01*
X189793523Y-115831904D01*
X189888761Y-115927142D01*
X189936380Y-116070000D01*
X189936380Y-116308095D01*
X188936380Y-115403333D02*
X188936380Y-114736666D01*
X189936380Y-115165238D01*
X189650666Y-113744285D02*
X189650666Y-113268095D01*
X189936380Y-113839523D02*
X188936380Y-113506190D01*
X189936380Y-113172857D01*
X188936380Y-112649047D02*
X188936380Y-112553809D01*
X188984000Y-112458571D01*
X189031619Y-112410952D01*
X189126857Y-112363333D01*
X189317333Y-112315714D01*
X189555428Y-112315714D01*
X189745904Y-112363333D01*
X189841142Y-112410952D01*
X189888761Y-112458571D01*
X189936380Y-112553809D01*
X189936380Y-112649047D01*
X189888761Y-112744285D01*
X189841142Y-112791904D01*
X189745904Y-112839523D01*
X189555428Y-112887142D01*
X189317333Y-112887142D01*
X189126857Y-112839523D01*
X189031619Y-112791904D01*
X188984000Y-112744285D01*
X188936380Y-112649047D01*
X189650666Y-111204285D02*
X189650666Y-110728095D01*
X189936380Y-111299523D02*
X188936380Y-110966190D01*
X189936380Y-110632857D01*
X189936380Y-109775714D02*
X189936380Y-110347142D01*
X189936380Y-110061428D02*
X188936380Y-110061428D01*
X189079238Y-110156666D01*
X189174476Y-110251904D01*
X189222095Y-110347142D01*
X189650666Y-108664285D02*
X189650666Y-108188095D01*
X189936380Y-108759523D02*
X188936380Y-108426190D01*
X189936380Y-108092857D01*
X189031619Y-107807142D02*
X188984000Y-107759523D01*
X188936380Y-107664285D01*
X188936380Y-107426190D01*
X188984000Y-107330952D01*
X189031619Y-107283333D01*
X189126857Y-107235714D01*
X189222095Y-107235714D01*
X189364952Y-107283333D01*
X189936380Y-107854761D01*
X189936380Y-107235714D01*
X189650666Y-106124285D02*
X189650666Y-105648095D01*
X189936380Y-106219523D02*
X188936380Y-105886190D01*
X189936380Y-105552857D01*
X188936380Y-105314761D02*
X188936380Y-104695714D01*
X189317333Y-105029047D01*
X189317333Y-104886190D01*
X189364952Y-104790952D01*
X189412571Y-104743333D01*
X189507809Y-104695714D01*
X189745904Y-104695714D01*
X189841142Y-104743333D01*
X189888761Y-104790952D01*
X189936380Y-104886190D01*
X189936380Y-105171904D01*
X189888761Y-105267142D01*
X189841142Y-105314761D01*
X189650666Y-103584285D02*
X189650666Y-103108095D01*
X189936380Y-103679523D02*
X188936380Y-103346190D01*
X189936380Y-103012857D01*
X189269714Y-102250952D02*
X189936380Y-102250952D01*
X188888761Y-102489047D02*
X189603047Y-102727142D01*
X189603047Y-102108095D01*
X189650666Y-101044285D02*
X189650666Y-100568095D01*
X189936380Y-101139523D02*
X188936380Y-100806190D01*
X189936380Y-100472857D01*
X188936380Y-99663333D02*
X188936380Y-100139523D01*
X189412571Y-100187142D01*
X189364952Y-100139523D01*
X189317333Y-100044285D01*
X189317333Y-99806190D01*
X189364952Y-99710952D01*
X189412571Y-99663333D01*
X189507809Y-99615714D01*
X189745904Y-99615714D01*
X189841142Y-99663333D01*
X189888761Y-99710952D01*
X189936380Y-99806190D01*
X189936380Y-100044285D01*
X189888761Y-100139523D01*
X189841142Y-100187142D01*
X189650666Y-98504285D02*
X189650666Y-98028095D01*
X189936380Y-98599523D02*
X188936380Y-98266190D01*
X189936380Y-97932857D01*
X188936380Y-97170952D02*
X188936380Y-97361428D01*
X188984000Y-97456666D01*
X189031619Y-97504285D01*
X189174476Y-97599523D01*
X189364952Y-97647142D01*
X189745904Y-97647142D01*
X189841142Y-97599523D01*
X189888761Y-97551904D01*
X189936380Y-97456666D01*
X189936380Y-97266190D01*
X189888761Y-97170952D01*
X189841142Y-97123333D01*
X189745904Y-97075714D01*
X189507809Y-97075714D01*
X189412571Y-97123333D01*
X189364952Y-97170952D01*
X189317333Y-97266190D01*
X189317333Y-97456666D01*
X189364952Y-97551904D01*
X189412571Y-97599523D01*
X189507809Y-97647142D01*
X189650666Y-95964285D02*
X189650666Y-95488095D01*
X189936380Y-96059523D02*
X188936380Y-95726190D01*
X189936380Y-95392857D01*
X188936380Y-95154761D02*
X188936380Y-94488095D01*
X189936380Y-94916666D01*
D11*
X189936380Y-93722976D02*
X188936380Y-93722976D01*
X188936380Y-93299642D02*
X188936380Y-93178690D01*
X188984000Y-93118214D01*
X189079238Y-93057738D01*
X189269714Y-93027500D01*
X189603047Y-93027500D01*
X189793523Y-93057738D01*
X189888761Y-93118214D01*
X189936380Y-93178690D01*
X189936380Y-93299642D01*
X189888761Y-93360119D01*
X189793523Y-93420595D01*
X189603047Y-93450833D01*
X189269714Y-93450833D01*
X189079238Y-93420595D01*
X188984000Y-93360119D01*
X188936380Y-93299642D01*
X188936380Y-92815833D02*
X189936380Y-92664642D01*
X189222095Y-92543690D01*
X189936380Y-92422738D01*
X188936380Y-92271547D01*
X189936380Y-91666785D02*
X189460190Y-91878452D01*
X189936380Y-92029642D02*
X188936380Y-92029642D01*
X188936380Y-91787738D01*
X188984000Y-91727261D01*
X189031619Y-91697023D01*
X189126857Y-91666785D01*
X189269714Y-91666785D01*
X189364952Y-91697023D01*
X189412571Y-91727261D01*
X189460190Y-91787738D01*
X189460190Y-92029642D01*
X189936380Y-91137619D02*
X188936380Y-91137619D01*
X188936380Y-90714285D02*
X188936380Y-90593333D01*
X188984000Y-90532857D01*
X189079238Y-90472380D01*
X189269714Y-90442142D01*
X189603047Y-90442142D01*
X189793523Y-90472380D01*
X189888761Y-90532857D01*
X189936380Y-90593333D01*
X189936380Y-90714285D01*
X189888761Y-90774761D01*
X189793523Y-90835238D01*
X189603047Y-90865476D01*
X189269714Y-90865476D01*
X189079238Y-90835238D01*
X188984000Y-90774761D01*
X188936380Y-90714285D01*
X189936380Y-89807142D02*
X189460190Y-90018809D01*
X189936380Y-90170000D02*
X188936380Y-90170000D01*
X188936380Y-89928095D01*
X188984000Y-89867619D01*
X189031619Y-89837380D01*
X189126857Y-89807142D01*
X189269714Y-89807142D01*
X189364952Y-89837380D01*
X189412571Y-89867619D01*
X189460190Y-89928095D01*
X189460190Y-90170000D01*
X189936380Y-89535000D02*
X188936380Y-89535000D01*
X188936380Y-89383809D01*
X188984000Y-89293095D01*
X189079238Y-89232619D01*
X189174476Y-89202380D01*
X189364952Y-89172142D01*
X189507809Y-89172142D01*
X189698285Y-89202380D01*
X189793523Y-89232619D01*
X189888761Y-89293095D01*
X189936380Y-89383809D01*
X189936380Y-89535000D01*
D10*
X188984000Y-88113809D02*
X188936380Y-88174285D01*
X188936380Y-88265000D01*
X188984000Y-88355714D01*
X189079238Y-88416190D01*
X189174476Y-88446428D01*
X189364952Y-88476666D01*
X189507809Y-88476666D01*
X189698285Y-88446428D01*
X189793523Y-88416190D01*
X189888761Y-88355714D01*
X189936380Y-88265000D01*
X189936380Y-88204523D01*
X189888761Y-88113809D01*
X189841142Y-88083571D01*
X189507809Y-88083571D01*
X189507809Y-88204523D01*
X189936380Y-87811428D02*
X188936380Y-87811428D01*
X189936380Y-87448571D01*
X188936380Y-87448571D01*
X189936380Y-87146190D02*
X188936380Y-87146190D01*
X188936380Y-86995000D01*
X188984000Y-86904285D01*
X189079238Y-86843809D01*
X189174476Y-86813571D01*
X189364952Y-86783333D01*
X189507809Y-86783333D01*
X189698285Y-86813571D01*
X189793523Y-86843809D01*
X189888761Y-86904285D01*
X189936380Y-86995000D01*
X189936380Y-87146190D01*
X188936380Y-85470952D02*
X188936380Y-85947142D01*
X189412571Y-85994761D01*
X189364952Y-85947142D01*
X189317333Y-85851904D01*
X189317333Y-85613809D01*
X189364952Y-85518571D01*
X189412571Y-85470952D01*
X189507809Y-85423333D01*
X189745904Y-85423333D01*
X189841142Y-85470952D01*
X189888761Y-85518571D01*
X189936380Y-85613809D01*
X189936380Y-85851904D01*
X189888761Y-85947142D01*
X189841142Y-85994761D01*
X189555428Y-84994761D02*
X189555428Y-84232857D01*
X189936380Y-84613809D02*
X189174476Y-84613809D01*
D12*
G04 #@! TO.C,R1*
X138970000Y-95658000D02*
X138970000Y-98398000D01*
X138970000Y-98398000D02*
X145510000Y-98398000D01*
X145510000Y-98398000D02*
X145510000Y-95658000D01*
X145510000Y-95658000D02*
X138970000Y-95658000D01*
X138200000Y-97028000D02*
X138970000Y-97028000D01*
X146280000Y-97028000D02*
X145510000Y-97028000D01*
G04 #@! TO.C,SW1*
X126580000Y-92440000D02*
X131080000Y-92440000D01*
X125330000Y-88440000D02*
X125330000Y-89940000D01*
X131080000Y-85940000D02*
X126580000Y-85940000D01*
X132330000Y-89940000D02*
X132330000Y-88440000D01*
G04 #@! TO.C,C8*
X140030000Y-91440000D02*
G75*
G03*
X140030000Y-91440000I-2120000J0D01*
G01*
X137910000Y-92280000D02*
X137910000Y-93520000D01*
X137910000Y-89360000D02*
X137910000Y-90600000D01*
X137950000Y-92280000D02*
X137950000Y-93520000D01*
X137950000Y-89360000D02*
X137950000Y-90600000D01*
X137990000Y-92280000D02*
X137990000Y-93519000D01*
X137990000Y-89361000D02*
X137990000Y-90600000D01*
X138030000Y-89363000D02*
X138030000Y-90600000D01*
X138030000Y-92280000D02*
X138030000Y-93517000D01*
X138070000Y-89366000D02*
X138070000Y-90600000D01*
X138070000Y-92280000D02*
X138070000Y-93514000D01*
X138110000Y-89369000D02*
X138110000Y-90600000D01*
X138110000Y-92280000D02*
X138110000Y-93511000D01*
X138150000Y-89373000D02*
X138150000Y-90600000D01*
X138150000Y-92280000D02*
X138150000Y-93507000D01*
X138190000Y-89378000D02*
X138190000Y-90600000D01*
X138190000Y-92280000D02*
X138190000Y-93502000D01*
X138230000Y-89384000D02*
X138230000Y-90600000D01*
X138230000Y-92280000D02*
X138230000Y-93496000D01*
X138270000Y-89390000D02*
X138270000Y-90600000D01*
X138270000Y-92280000D02*
X138270000Y-93490000D01*
X138310000Y-89398000D02*
X138310000Y-90600000D01*
X138310000Y-92280000D02*
X138310000Y-93482000D01*
X138350000Y-89406000D02*
X138350000Y-90600000D01*
X138350000Y-92280000D02*
X138350000Y-93474000D01*
X138390000Y-89415000D02*
X138390000Y-90600000D01*
X138390000Y-92280000D02*
X138390000Y-93465000D01*
X138430000Y-89424000D02*
X138430000Y-90600000D01*
X138430000Y-92280000D02*
X138430000Y-93456000D01*
X138470000Y-89435000D02*
X138470000Y-90600000D01*
X138470000Y-92280000D02*
X138470000Y-93445000D01*
X138510000Y-89446000D02*
X138510000Y-90600000D01*
X138510000Y-92280000D02*
X138510000Y-93434000D01*
X138550000Y-89458000D02*
X138550000Y-90600000D01*
X138550000Y-92280000D02*
X138550000Y-93422000D01*
X138590000Y-89472000D02*
X138590000Y-90600000D01*
X138590000Y-92280000D02*
X138590000Y-93408000D01*
X138631000Y-89486000D02*
X138631000Y-90600000D01*
X138631000Y-92280000D02*
X138631000Y-93394000D01*
X138671000Y-89500000D02*
X138671000Y-90600000D01*
X138671000Y-92280000D02*
X138671000Y-93380000D01*
X138711000Y-89516000D02*
X138711000Y-90600000D01*
X138711000Y-92280000D02*
X138711000Y-93364000D01*
X138751000Y-89533000D02*
X138751000Y-90600000D01*
X138751000Y-92280000D02*
X138751000Y-93347000D01*
X138791000Y-89551000D02*
X138791000Y-90600000D01*
X138791000Y-92280000D02*
X138791000Y-93329000D01*
X138831000Y-89570000D02*
X138831000Y-90600000D01*
X138831000Y-92280000D02*
X138831000Y-93310000D01*
X138871000Y-89589000D02*
X138871000Y-90600000D01*
X138871000Y-92280000D02*
X138871000Y-93291000D01*
X138911000Y-89610000D02*
X138911000Y-90600000D01*
X138911000Y-92280000D02*
X138911000Y-93270000D01*
X138951000Y-89632000D02*
X138951000Y-90600000D01*
X138951000Y-92280000D02*
X138951000Y-93248000D01*
X138991000Y-89655000D02*
X138991000Y-90600000D01*
X138991000Y-92280000D02*
X138991000Y-93225000D01*
X139031000Y-89680000D02*
X139031000Y-90600000D01*
X139031000Y-92280000D02*
X139031000Y-93200000D01*
X139071000Y-89705000D02*
X139071000Y-90600000D01*
X139071000Y-92280000D02*
X139071000Y-93175000D01*
X139111000Y-89732000D02*
X139111000Y-90600000D01*
X139111000Y-92280000D02*
X139111000Y-93148000D01*
X139151000Y-89760000D02*
X139151000Y-90600000D01*
X139151000Y-92280000D02*
X139151000Y-93120000D01*
X139191000Y-89790000D02*
X139191000Y-90600000D01*
X139191000Y-92280000D02*
X139191000Y-93090000D01*
X139231000Y-89821000D02*
X139231000Y-90600000D01*
X139231000Y-92280000D02*
X139231000Y-93059000D01*
X139271000Y-89853000D02*
X139271000Y-90600000D01*
X139271000Y-92280000D02*
X139271000Y-93027000D01*
X139311000Y-89888000D02*
X139311000Y-90600000D01*
X139311000Y-92280000D02*
X139311000Y-92992000D01*
X139351000Y-89924000D02*
X139351000Y-90600000D01*
X139351000Y-92280000D02*
X139351000Y-92956000D01*
X139391000Y-89962000D02*
X139391000Y-90600000D01*
X139391000Y-92280000D02*
X139391000Y-92918000D01*
X139431000Y-90002000D02*
X139431000Y-90600000D01*
X139431000Y-92280000D02*
X139431000Y-92878000D01*
X139471000Y-90044000D02*
X139471000Y-90600000D01*
X139471000Y-92280000D02*
X139471000Y-92836000D01*
X139511000Y-90089000D02*
X139511000Y-92791000D01*
X139551000Y-90136000D02*
X139551000Y-92744000D01*
X139591000Y-90186000D02*
X139591000Y-92694000D01*
X139631000Y-90240000D02*
X139631000Y-92640000D01*
X139671000Y-90298000D02*
X139671000Y-92582000D01*
X139711000Y-90360000D02*
X139711000Y-92520000D01*
X139751000Y-90427000D02*
X139751000Y-92453000D01*
X139791000Y-90500000D02*
X139791000Y-92380000D01*
X139831000Y-90581000D02*
X139831000Y-92299000D01*
X139871000Y-90672000D02*
X139871000Y-92208000D01*
X139911000Y-90776000D02*
X139911000Y-92104000D01*
X139951000Y-90903000D02*
X139951000Y-91977000D01*
X139991000Y-91070000D02*
X139991000Y-91810000D01*
X135640199Y-90245000D02*
X136040199Y-90245000D01*
X135840199Y-90045000D02*
X135840199Y-90445000D01*
G04 #@! TO.C,C2*
X142787000Y-86590000D02*
X142802000Y-86590000D01*
X140662000Y-86590000D02*
X140677000Y-86590000D01*
X142787000Y-91130000D02*
X142802000Y-91130000D01*
X140662000Y-91130000D02*
X140677000Y-91130000D01*
X142802000Y-91130000D02*
X142802000Y-86590000D01*
X140662000Y-91130000D02*
X140662000Y-86590000D01*
G04 #@! TO.C,X1*
X121820000Y-106780000D02*
X133970000Y-106780000D01*
X134720000Y-106030000D02*
X134720000Y-94630000D01*
X133970000Y-93880000D02*
X122570000Y-93880000D01*
X121820000Y-94630000D02*
X121820000Y-106780000D01*
X122570000Y-93880000D02*
G75*
G03*
X121820000Y-94630000I0J-750000D01*
G01*
X134720000Y-94630000D02*
G75*
G03*
X133970000Y-93880000I-750000J0D01*
G01*
X133970000Y-106780000D02*
G75*
G03*
X134720000Y-106030000I0J750000D01*
G01*
G04 #@! TO.C,U5*
X168850000Y-87520000D02*
X168850000Y-89170000D01*
X186750000Y-87520000D02*
X168850000Y-87520000D01*
X186750000Y-92820000D02*
X186750000Y-87520000D01*
X168850000Y-92820000D02*
X186750000Y-92820000D01*
X168850000Y-91170000D02*
X168850000Y-92820000D01*
X168850000Y-89170000D02*
G75*
G02*
X168850000Y-91170000I0J-1000000D01*
G01*
G04 #@! TO.C,U7*
X184260000Y-102810000D02*
X178800000Y-102810000D01*
X184260000Y-138490000D02*
X184260000Y-102810000D01*
X171340000Y-138490000D02*
X184260000Y-138490000D01*
X171340000Y-102810000D02*
X171340000Y-138490000D01*
X176800000Y-102810000D02*
X171340000Y-102810000D01*
X178800000Y-102810000D02*
G75*
G02*
X176800000Y-102810000I-1000000J0D01*
G01*
G04 #@! TO.C,U6*
X166480000Y-102810000D02*
X161020000Y-102810000D01*
X166480000Y-138490000D02*
X166480000Y-102810000D01*
X153560000Y-138490000D02*
X166480000Y-138490000D01*
X153560000Y-102810000D02*
X153560000Y-138490000D01*
X159020000Y-102810000D02*
X153560000Y-102810000D01*
X161020000Y-102810000D02*
G75*
G02*
X159020000Y-102810000I-1000000J0D01*
G01*
G04 #@! TO.C,U4*
X130920000Y-112970000D02*
X129270000Y-112970000D01*
X130920000Y-138490000D02*
X130920000Y-112970000D01*
X125620000Y-138490000D02*
X130920000Y-138490000D01*
X125620000Y-112970000D02*
X125620000Y-138490000D01*
X127270000Y-112970000D02*
X125620000Y-112970000D01*
X129270000Y-112970000D02*
G75*
G02*
X127270000Y-112970000I-1000000J0D01*
G01*
G04 #@! TO.C,U3*
X141080000Y-112970000D02*
X139430000Y-112970000D01*
X141080000Y-138490000D02*
X141080000Y-112970000D01*
X135780000Y-138490000D02*
X141080000Y-138490000D01*
X135780000Y-112970000D02*
X135780000Y-138490000D01*
X137430000Y-112970000D02*
X135780000Y-112970000D01*
X139430000Y-112970000D02*
G75*
G02*
X137430000Y-112970000I-1000000J0D01*
G01*
G04 #@! TO.C,U2*
X143450000Y-87520000D02*
X143450000Y-89170000D01*
X163890000Y-87520000D02*
X143450000Y-87520000D01*
X163890000Y-92820000D02*
X163890000Y-87520000D01*
X143450000Y-92820000D02*
X163890000Y-92820000D01*
X143450000Y-91170000D02*
X143450000Y-92820000D01*
X143450000Y-89170000D02*
G75*
G02*
X143450000Y-91170000I0J-1000000D01*
G01*
G04 #@! TO.C,U1*
X118220000Y-87570000D02*
X112760000Y-87570000D01*
X118220000Y-138490000D02*
X118220000Y-87570000D01*
X105300000Y-138490000D02*
X118220000Y-138490000D01*
X105300000Y-87570000D02*
X105300000Y-138490000D01*
X110760000Y-87570000D02*
X105300000Y-87570000D01*
X112760000Y-87570000D02*
G75*
G02*
X110760000Y-87570000I-1000000J0D01*
G01*
G04 #@! TO.C,C7*
X185190000Y-102147000D02*
X185190000Y-102162000D01*
X185190000Y-100022000D02*
X185190000Y-100037000D01*
X180650000Y-102147000D02*
X180650000Y-102162000D01*
X180650000Y-100022000D02*
X180650000Y-100037000D01*
X180650000Y-102162000D02*
X185190000Y-102162000D01*
X180650000Y-100022000D02*
X185190000Y-100022000D01*
G04 #@! TO.C,C6*
X167410000Y-102147000D02*
X167410000Y-102162000D01*
X167410000Y-100022000D02*
X167410000Y-100037000D01*
X162870000Y-102147000D02*
X162870000Y-102162000D01*
X162870000Y-100022000D02*
X162870000Y-100037000D01*
X162870000Y-102162000D02*
X167410000Y-102162000D01*
X162870000Y-100022000D02*
X167410000Y-100022000D01*
G04 #@! TO.C,C5*
X168187000Y-86590000D02*
X168202000Y-86590000D01*
X166062000Y-86590000D02*
X166077000Y-86590000D01*
X168187000Y-91130000D02*
X168202000Y-91130000D01*
X166062000Y-91130000D02*
X166077000Y-91130000D01*
X168202000Y-91130000D02*
X168202000Y-86590000D01*
X166062000Y-91130000D02*
X166062000Y-86590000D01*
G04 #@! TO.C,C4*
X131850000Y-112307000D02*
X131850000Y-112322000D01*
X131850000Y-110182000D02*
X131850000Y-110197000D01*
X127310000Y-112307000D02*
X127310000Y-112322000D01*
X127310000Y-110182000D02*
X127310000Y-110197000D01*
X127310000Y-112322000D02*
X131850000Y-112322000D01*
X127310000Y-110182000D02*
X131850000Y-110182000D01*
G04 #@! TO.C,C3*
X142010000Y-112307000D02*
X142010000Y-112322000D01*
X142010000Y-110182000D02*
X142010000Y-110197000D01*
X137470000Y-112307000D02*
X137470000Y-112322000D01*
X137470000Y-110182000D02*
X137470000Y-110197000D01*
X137470000Y-112322000D02*
X142010000Y-112322000D01*
X137470000Y-110182000D02*
X142010000Y-110182000D01*
G04 #@! TO.C,C1*
X119150000Y-86907000D02*
X119150000Y-86922000D01*
X119150000Y-84782000D02*
X119150000Y-84797000D01*
X114610000Y-86907000D02*
X114610000Y-86922000D01*
X114610000Y-84782000D02*
X114610000Y-84797000D01*
X114610000Y-86922000D02*
X119150000Y-86922000D01*
X114610000Y-84782000D02*
X119150000Y-84782000D01*
G04 #@! TO.C,*
D10*
G04 #@! TO.C,R1*
X139549523Y-99850380D02*
X138978095Y-99850380D01*
X139263809Y-99850380D02*
X139263809Y-98850380D01*
X139168571Y-98993238D01*
X139073333Y-99088476D01*
X138978095Y-99136095D01*
X140168571Y-98850380D02*
X140263809Y-98850380D01*
X140359047Y-98898000D01*
X140406666Y-98945619D01*
X140454285Y-99040857D01*
X140501904Y-99231333D01*
X140501904Y-99469428D01*
X140454285Y-99659904D01*
X140406666Y-99755142D01*
X140359047Y-99802761D01*
X140263809Y-99850380D01*
X140168571Y-99850380D01*
X140073333Y-99802761D01*
X140025714Y-99755142D01*
X139978095Y-99659904D01*
X139930476Y-99469428D01*
X139930476Y-99231333D01*
X139978095Y-99040857D01*
X140025714Y-98945619D01*
X140073333Y-98898000D01*
X140168571Y-98850380D01*
X140930476Y-99850380D02*
X140930476Y-98850380D01*
X141501904Y-99850380D02*
X141073333Y-99278952D01*
X141501904Y-98850380D02*
X140930476Y-99421809D01*
X142882857Y-98850380D02*
X143073333Y-98850380D01*
X143168571Y-98898000D01*
X143263809Y-98993238D01*
X143311428Y-99183714D01*
X143311428Y-99517047D01*
X143263809Y-99707523D01*
X143168571Y-99802761D01*
X143073333Y-99850380D01*
X142882857Y-99850380D01*
X142787619Y-99802761D01*
X142692380Y-99707523D01*
X142644761Y-99517047D01*
X142644761Y-99183714D01*
X142692380Y-98993238D01*
X142787619Y-98898000D01*
X142882857Y-98850380D01*
X143740000Y-99850380D02*
X143740000Y-98850380D01*
X143740000Y-99326571D02*
X144311428Y-99326571D01*
X144311428Y-99850380D02*
X144311428Y-98850380D01*
X144787619Y-99850380D02*
X144787619Y-98850380D01*
X145120952Y-99564666D01*
X145454285Y-98850380D01*
X145454285Y-99850380D01*
G04 #@! TO.C,SW1*
X127325619Y-85288380D02*
X126992285Y-84812190D01*
X126754190Y-85288380D02*
X126754190Y-84288380D01*
X127135142Y-84288380D01*
X127230380Y-84336000D01*
X127278000Y-84383619D01*
X127325619Y-84478857D01*
X127325619Y-84621714D01*
X127278000Y-84716952D01*
X127230380Y-84764571D01*
X127135142Y-84812190D01*
X126754190Y-84812190D01*
X127754190Y-84764571D02*
X128087523Y-84764571D01*
X128230380Y-85288380D02*
X127754190Y-85288380D01*
X127754190Y-84288380D01*
X128230380Y-84288380D01*
X128611333Y-85240761D02*
X128754190Y-85288380D01*
X128992285Y-85288380D01*
X129087523Y-85240761D01*
X129135142Y-85193142D01*
X129182761Y-85097904D01*
X129182761Y-85002666D01*
X129135142Y-84907428D01*
X129087523Y-84859809D01*
X128992285Y-84812190D01*
X128801809Y-84764571D01*
X128706571Y-84716952D01*
X128658952Y-84669333D01*
X128611333Y-84574095D01*
X128611333Y-84478857D01*
X128658952Y-84383619D01*
X128706571Y-84336000D01*
X128801809Y-84288380D01*
X129039904Y-84288380D01*
X129182761Y-84336000D01*
X129611333Y-84764571D02*
X129944666Y-84764571D01*
X130087523Y-85288380D02*
X129611333Y-85288380D01*
X129611333Y-84288380D01*
X130087523Y-84288380D01*
X130373238Y-84288380D02*
X130944666Y-84288380D01*
X130658952Y-85288380D02*
X130658952Y-84288380D01*
G04 #@! TO.C,C8*
X136505238Y-94475714D02*
X136505238Y-95142380D01*
X136267142Y-94094761D02*
X136029047Y-94809047D01*
X136648095Y-94809047D01*
X137029047Y-95047142D02*
X137076666Y-95094761D01*
X137029047Y-95142380D01*
X136981428Y-95094761D01*
X137029047Y-95047142D01*
X137029047Y-95142380D01*
X137410000Y-94142380D02*
X138076666Y-94142380D01*
X137648095Y-95142380D01*
X138886190Y-94475714D02*
X138886190Y-95142380D01*
X138457619Y-94475714D02*
X138457619Y-94999523D01*
X138505238Y-95094761D01*
X138600476Y-95142380D01*
X138743333Y-95142380D01*
X138838571Y-95094761D01*
X138886190Y-95047142D01*
X139695714Y-94618571D02*
X139362380Y-94618571D01*
X139362380Y-95142380D02*
X139362380Y-94142380D01*
X139838571Y-94142380D01*
G04 #@! TO.C,C2*
X141184380Y-90542857D02*
X141184380Y-90447619D01*
X141232000Y-90352380D01*
X141279619Y-90304761D01*
X141374857Y-90257142D01*
X141565333Y-90209523D01*
X141803428Y-90209523D01*
X141993904Y-90257142D01*
X142089142Y-90304761D01*
X142136761Y-90352380D01*
X142184380Y-90447619D01*
X142184380Y-90542857D01*
X142136761Y-90638095D01*
X142089142Y-90685714D01*
X141993904Y-90733333D01*
X141803428Y-90780952D01*
X141565333Y-90780952D01*
X141374857Y-90733333D01*
X141279619Y-90685714D01*
X141232000Y-90638095D01*
X141184380Y-90542857D01*
X142089142Y-89780952D02*
X142136761Y-89733333D01*
X142184380Y-89780952D01*
X142136761Y-89828571D01*
X142089142Y-89780952D01*
X142184380Y-89780952D01*
X142184380Y-88780952D02*
X142184380Y-89352380D01*
X142184380Y-89066666D02*
X141184380Y-89066666D01*
X141327238Y-89161904D01*
X141422476Y-89257142D01*
X141470095Y-89352380D01*
X141517714Y-87923809D02*
X142184380Y-87923809D01*
X141517714Y-88352380D02*
X142041523Y-88352380D01*
X142136761Y-88304761D01*
X142184380Y-88209523D01*
X142184380Y-88066666D01*
X142136761Y-87971428D01*
X142089142Y-87923809D01*
X141660571Y-87114285D02*
X141660571Y-87447619D01*
X142184380Y-87447619D02*
X141184380Y-87447619D01*
X141184380Y-86971428D01*
G04 #@! TO.C,X1*
X127198571Y-107332380D02*
X127389047Y-107332380D01*
X127484285Y-107380000D01*
X127579523Y-107475238D01*
X127627142Y-107665714D01*
X127627142Y-107999047D01*
X127579523Y-108189523D01*
X127484285Y-108284761D01*
X127389047Y-108332380D01*
X127198571Y-108332380D01*
X127103333Y-108284761D01*
X127008095Y-108189523D01*
X126960476Y-107999047D01*
X126960476Y-107665714D01*
X127008095Y-107475238D01*
X127103333Y-107380000D01*
X127198571Y-107332380D01*
X128008095Y-108284761D02*
X128150952Y-108332380D01*
X128389047Y-108332380D01*
X128484285Y-108284761D01*
X128531904Y-108237142D01*
X128579523Y-108141904D01*
X128579523Y-108046666D01*
X128531904Y-107951428D01*
X128484285Y-107903809D01*
X128389047Y-107856190D01*
X128198571Y-107808571D01*
X128103333Y-107760952D01*
X128055714Y-107713333D01*
X128008095Y-107618095D01*
X128008095Y-107522857D01*
X128055714Y-107427619D01*
X128103333Y-107380000D01*
X128198571Y-107332380D01*
X128436666Y-107332380D01*
X128579523Y-107380000D01*
X129579523Y-108237142D02*
X129531904Y-108284761D01*
X129389047Y-108332380D01*
X129293809Y-108332380D01*
X129150952Y-108284761D01*
X129055714Y-108189523D01*
X129008095Y-108094285D01*
X128960476Y-107903809D01*
X128960476Y-107760952D01*
X129008095Y-107570476D01*
X129055714Y-107475238D01*
X129150952Y-107380000D01*
X129293809Y-107332380D01*
X129389047Y-107332380D01*
X129531904Y-107380000D01*
X129579523Y-107427619D01*
G04 #@! TO.C,U5*
X187202380Y-92812857D02*
X187202380Y-92146190D01*
X188202380Y-92574761D01*
X187535714Y-91336666D02*
X188202380Y-91336666D01*
X187154761Y-91574761D02*
X187869047Y-91812857D01*
X187869047Y-91193809D01*
X188202380Y-90336666D02*
X188202380Y-90812857D01*
X187202380Y-90812857D01*
X188154761Y-90050952D02*
X188202380Y-89908095D01*
X188202380Y-89670000D01*
X188154761Y-89574761D01*
X188107142Y-89527142D01*
X188011904Y-89479523D01*
X187916666Y-89479523D01*
X187821428Y-89527142D01*
X187773809Y-89574761D01*
X187726190Y-89670000D01*
X187678571Y-89860476D01*
X187630952Y-89955714D01*
X187583333Y-90003333D01*
X187488095Y-90050952D01*
X187392857Y-90050952D01*
X187297619Y-90003333D01*
X187250000Y-89955714D01*
X187202380Y-89860476D01*
X187202380Y-89622380D01*
X187250000Y-89479523D01*
X187202380Y-88860476D02*
X187202380Y-88765238D01*
X187250000Y-88670000D01*
X187297619Y-88622380D01*
X187392857Y-88574761D01*
X187583333Y-88527142D01*
X187821428Y-88527142D01*
X188011904Y-88574761D01*
X188107142Y-88622380D01*
X188154761Y-88670000D01*
X188202380Y-88765238D01*
X188202380Y-88860476D01*
X188154761Y-88955714D01*
X188107142Y-89003333D01*
X188011904Y-89050952D01*
X187821428Y-89098571D01*
X187583333Y-89098571D01*
X187392857Y-89050952D01*
X187297619Y-89003333D01*
X187250000Y-88955714D01*
X187202380Y-88860476D01*
X187535714Y-87670000D02*
X188202380Y-87670000D01*
X187154761Y-87908095D02*
X187869047Y-88146190D01*
X187869047Y-87527142D01*
G04 #@! TO.C,U7*
X175109523Y-139037619D02*
X175157142Y-138990000D01*
X175252380Y-138942380D01*
X175490476Y-138942380D01*
X175585714Y-138990000D01*
X175633333Y-139037619D01*
X175680952Y-139132857D01*
X175680952Y-139228095D01*
X175633333Y-139370952D01*
X175061904Y-139942380D01*
X175680952Y-139942380D01*
X176252380Y-139370952D02*
X176157142Y-139323333D01*
X176109523Y-139275714D01*
X176061904Y-139180476D01*
X176061904Y-139132857D01*
X176109523Y-139037619D01*
X176157142Y-138990000D01*
X176252380Y-138942380D01*
X176442857Y-138942380D01*
X176538095Y-138990000D01*
X176585714Y-139037619D01*
X176633333Y-139132857D01*
X176633333Y-139180476D01*
X176585714Y-139275714D01*
X176538095Y-139323333D01*
X176442857Y-139370952D01*
X176252380Y-139370952D01*
X176157142Y-139418571D01*
X176109523Y-139466190D01*
X176061904Y-139561428D01*
X176061904Y-139751904D01*
X176109523Y-139847142D01*
X176157142Y-139894761D01*
X176252380Y-139942380D01*
X176442857Y-139942380D01*
X176538095Y-139894761D01*
X176585714Y-139847142D01*
X176633333Y-139751904D01*
X176633333Y-139561428D01*
X176585714Y-139466190D01*
X176538095Y-139418571D01*
X176442857Y-139370952D01*
X177633333Y-139847142D02*
X177585714Y-139894761D01*
X177442857Y-139942380D01*
X177347619Y-139942380D01*
X177204761Y-139894761D01*
X177109523Y-139799523D01*
X177061904Y-139704285D01*
X177014285Y-139513809D01*
X177014285Y-139370952D01*
X177061904Y-139180476D01*
X177109523Y-139085238D01*
X177204761Y-138990000D01*
X177347619Y-138942380D01*
X177442857Y-138942380D01*
X177585714Y-138990000D01*
X177633333Y-139037619D01*
X178014285Y-139037619D02*
X178061904Y-138990000D01*
X178157142Y-138942380D01*
X178395238Y-138942380D01*
X178490476Y-138990000D01*
X178538095Y-139037619D01*
X178585714Y-139132857D01*
X178585714Y-139228095D01*
X178538095Y-139370952D01*
X177966666Y-139942380D01*
X178585714Y-139942380D01*
X179490476Y-138942380D02*
X179014285Y-138942380D01*
X178966666Y-139418571D01*
X179014285Y-139370952D01*
X179109523Y-139323333D01*
X179347619Y-139323333D01*
X179442857Y-139370952D01*
X179490476Y-139418571D01*
X179538095Y-139513809D01*
X179538095Y-139751904D01*
X179490476Y-139847142D01*
X179442857Y-139894761D01*
X179347619Y-139942380D01*
X179109523Y-139942380D01*
X179014285Y-139894761D01*
X178966666Y-139847142D01*
X180395238Y-138942380D02*
X180204761Y-138942380D01*
X180109523Y-138990000D01*
X180061904Y-139037619D01*
X179966666Y-139180476D01*
X179919047Y-139370952D01*
X179919047Y-139751904D01*
X179966666Y-139847142D01*
X180014285Y-139894761D01*
X180109523Y-139942380D01*
X180300000Y-139942380D01*
X180395238Y-139894761D01*
X180442857Y-139847142D01*
X180490476Y-139751904D01*
X180490476Y-139513809D01*
X180442857Y-139418571D01*
X180395238Y-139370952D01*
X180300000Y-139323333D01*
X180109523Y-139323333D01*
X180014285Y-139370952D01*
X179966666Y-139418571D01*
X179919047Y-139513809D01*
G04 #@! TO.C,U6*
X158305714Y-138942380D02*
X158115238Y-138942380D01*
X158020000Y-138990000D01*
X157972380Y-139037619D01*
X157877142Y-139180476D01*
X157829523Y-139370952D01*
X157829523Y-139751904D01*
X157877142Y-139847142D01*
X157924761Y-139894761D01*
X158020000Y-139942380D01*
X158210476Y-139942380D01*
X158305714Y-139894761D01*
X158353333Y-139847142D01*
X158400952Y-139751904D01*
X158400952Y-139513809D01*
X158353333Y-139418571D01*
X158305714Y-139370952D01*
X158210476Y-139323333D01*
X158020000Y-139323333D01*
X157924761Y-139370952D01*
X157877142Y-139418571D01*
X157829523Y-139513809D01*
X158781904Y-139037619D02*
X158829523Y-138990000D01*
X158924761Y-138942380D01*
X159162857Y-138942380D01*
X159258095Y-138990000D01*
X159305714Y-139037619D01*
X159353333Y-139132857D01*
X159353333Y-139228095D01*
X159305714Y-139370952D01*
X158734285Y-139942380D01*
X159353333Y-139942380D01*
X159734285Y-139037619D02*
X159781904Y-138990000D01*
X159877142Y-138942380D01*
X160115238Y-138942380D01*
X160210476Y-138990000D01*
X160258095Y-139037619D01*
X160305714Y-139132857D01*
X160305714Y-139228095D01*
X160258095Y-139370952D01*
X159686666Y-139942380D01*
X160305714Y-139942380D01*
X161210476Y-138942380D02*
X160734285Y-138942380D01*
X160686666Y-139418571D01*
X160734285Y-139370952D01*
X160829523Y-139323333D01*
X161067619Y-139323333D01*
X161162857Y-139370952D01*
X161210476Y-139418571D01*
X161258095Y-139513809D01*
X161258095Y-139751904D01*
X161210476Y-139847142D01*
X161162857Y-139894761D01*
X161067619Y-139942380D01*
X160829523Y-139942380D01*
X160734285Y-139894761D01*
X160686666Y-139847142D01*
X162115238Y-138942380D02*
X161924761Y-138942380D01*
X161829523Y-138990000D01*
X161781904Y-139037619D01*
X161686666Y-139180476D01*
X161639047Y-139370952D01*
X161639047Y-139751904D01*
X161686666Y-139847142D01*
X161734285Y-139894761D01*
X161829523Y-139942380D01*
X162020000Y-139942380D01*
X162115238Y-139894761D01*
X162162857Y-139847142D01*
X162210476Y-139751904D01*
X162210476Y-139513809D01*
X162162857Y-139418571D01*
X162115238Y-139370952D01*
X162020000Y-139323333D01*
X161829523Y-139323333D01*
X161734285Y-139370952D01*
X161686666Y-139418571D01*
X161639047Y-139513809D01*
G04 #@! TO.C,U4*
X125150952Y-138942380D02*
X125817619Y-138942380D01*
X125389047Y-139942380D01*
X126627142Y-139275714D02*
X126627142Y-139942380D01*
X126389047Y-138894761D02*
X126150952Y-139609047D01*
X126770000Y-139609047D01*
X127627142Y-139942380D02*
X127150952Y-139942380D01*
X127150952Y-138942380D01*
X127912857Y-139894761D02*
X128055714Y-139942380D01*
X128293809Y-139942380D01*
X128389047Y-139894761D01*
X128436666Y-139847142D01*
X128484285Y-139751904D01*
X128484285Y-139656666D01*
X128436666Y-139561428D01*
X128389047Y-139513809D01*
X128293809Y-139466190D01*
X128103333Y-139418571D01*
X128008095Y-139370952D01*
X127960476Y-139323333D01*
X127912857Y-139228095D01*
X127912857Y-139132857D01*
X127960476Y-139037619D01*
X128008095Y-138990000D01*
X128103333Y-138942380D01*
X128341428Y-138942380D01*
X128484285Y-138990000D01*
X128865238Y-139037619D02*
X128912857Y-138990000D01*
X129008095Y-138942380D01*
X129246190Y-138942380D01*
X129341428Y-138990000D01*
X129389047Y-139037619D01*
X129436666Y-139132857D01*
X129436666Y-139228095D01*
X129389047Y-139370952D01*
X128817619Y-139942380D01*
X129436666Y-139942380D01*
X130293809Y-139275714D02*
X130293809Y-139942380D01*
X130055714Y-138894761D02*
X129817619Y-139609047D01*
X130436666Y-139609047D01*
X131293809Y-138942380D02*
X130817619Y-138942380D01*
X130770000Y-139418571D01*
X130817619Y-139370952D01*
X130912857Y-139323333D01*
X131150952Y-139323333D01*
X131246190Y-139370952D01*
X131293809Y-139418571D01*
X131341428Y-139513809D01*
X131341428Y-139751904D01*
X131293809Y-139847142D01*
X131246190Y-139894761D01*
X131150952Y-139942380D01*
X130912857Y-139942380D01*
X130817619Y-139894761D01*
X130770000Y-139847142D01*
G04 #@! TO.C,U3*
X135310952Y-138942380D02*
X135977619Y-138942380D01*
X135549047Y-139942380D01*
X136787142Y-139275714D02*
X136787142Y-139942380D01*
X136549047Y-138894761D02*
X136310952Y-139609047D01*
X136930000Y-139609047D01*
X137787142Y-139942380D02*
X137310952Y-139942380D01*
X137310952Y-138942380D01*
X138072857Y-139894761D02*
X138215714Y-139942380D01*
X138453809Y-139942380D01*
X138549047Y-139894761D01*
X138596666Y-139847142D01*
X138644285Y-139751904D01*
X138644285Y-139656666D01*
X138596666Y-139561428D01*
X138549047Y-139513809D01*
X138453809Y-139466190D01*
X138263333Y-139418571D01*
X138168095Y-139370952D01*
X138120476Y-139323333D01*
X138072857Y-139228095D01*
X138072857Y-139132857D01*
X138120476Y-139037619D01*
X138168095Y-138990000D01*
X138263333Y-138942380D01*
X138501428Y-138942380D01*
X138644285Y-138990000D01*
X139549047Y-138942380D02*
X139072857Y-138942380D01*
X139025238Y-139418571D01*
X139072857Y-139370952D01*
X139168095Y-139323333D01*
X139406190Y-139323333D01*
X139501428Y-139370952D01*
X139549047Y-139418571D01*
X139596666Y-139513809D01*
X139596666Y-139751904D01*
X139549047Y-139847142D01*
X139501428Y-139894761D01*
X139406190Y-139942380D01*
X139168095Y-139942380D01*
X139072857Y-139894761D01*
X139025238Y-139847142D01*
X139930000Y-138942380D02*
X140596666Y-138942380D01*
X140168095Y-139942380D01*
X140882380Y-138942380D02*
X141501428Y-138942380D01*
X141168095Y-139323333D01*
X141310952Y-139323333D01*
X141406190Y-139370952D01*
X141453809Y-139418571D01*
X141501428Y-139513809D01*
X141501428Y-139751904D01*
X141453809Y-139847142D01*
X141406190Y-139894761D01*
X141310952Y-139942380D01*
X141025238Y-139942380D01*
X140930000Y-139894761D01*
X140882380Y-139847142D01*
G04 #@! TO.C,U2*
X164342380Y-93289047D02*
X164342380Y-92622380D01*
X165342380Y-93050952D01*
X164675714Y-91812857D02*
X165342380Y-91812857D01*
X164294761Y-92050952D02*
X165009047Y-92289047D01*
X165009047Y-91670000D01*
X165342380Y-90812857D02*
X165342380Y-91289047D01*
X164342380Y-91289047D01*
X165294761Y-90527142D02*
X165342380Y-90384285D01*
X165342380Y-90146190D01*
X165294761Y-90050952D01*
X165247142Y-90003333D01*
X165151904Y-89955714D01*
X165056666Y-89955714D01*
X164961428Y-90003333D01*
X164913809Y-90050952D01*
X164866190Y-90146190D01*
X164818571Y-90336666D01*
X164770952Y-90431904D01*
X164723333Y-90479523D01*
X164628095Y-90527142D01*
X164532857Y-90527142D01*
X164437619Y-90479523D01*
X164390000Y-90431904D01*
X164342380Y-90336666D01*
X164342380Y-90098571D01*
X164390000Y-89955714D01*
X164437619Y-89574761D02*
X164390000Y-89527142D01*
X164342380Y-89431904D01*
X164342380Y-89193809D01*
X164390000Y-89098571D01*
X164437619Y-89050952D01*
X164532857Y-89003333D01*
X164628095Y-89003333D01*
X164770952Y-89050952D01*
X165342380Y-89622380D01*
X165342380Y-89003333D01*
X164342380Y-88098571D02*
X164342380Y-88574761D01*
X164818571Y-88622380D01*
X164770952Y-88574761D01*
X164723333Y-88479523D01*
X164723333Y-88241428D01*
X164770952Y-88146190D01*
X164818571Y-88098571D01*
X164913809Y-88050952D01*
X165151904Y-88050952D01*
X165247142Y-88098571D01*
X165294761Y-88146190D01*
X165342380Y-88241428D01*
X165342380Y-88479523D01*
X165294761Y-88574761D01*
X165247142Y-88622380D01*
X164342380Y-87717619D02*
X164342380Y-87050952D01*
X165342380Y-87479523D01*
G04 #@! TO.C,U1*
X110236190Y-139370952D02*
X110140952Y-139323333D01*
X110093333Y-139275714D01*
X110045714Y-139180476D01*
X110045714Y-139132857D01*
X110093333Y-139037619D01*
X110140952Y-138990000D01*
X110236190Y-138942380D01*
X110426666Y-138942380D01*
X110521904Y-138990000D01*
X110569523Y-139037619D01*
X110617142Y-139132857D01*
X110617142Y-139180476D01*
X110569523Y-139275714D01*
X110521904Y-139323333D01*
X110426666Y-139370952D01*
X110236190Y-139370952D01*
X110140952Y-139418571D01*
X110093333Y-139466190D01*
X110045714Y-139561428D01*
X110045714Y-139751904D01*
X110093333Y-139847142D01*
X110140952Y-139894761D01*
X110236190Y-139942380D01*
X110426666Y-139942380D01*
X110521904Y-139894761D01*
X110569523Y-139847142D01*
X110617142Y-139751904D01*
X110617142Y-139561428D01*
X110569523Y-139466190D01*
X110521904Y-139418571D01*
X110426666Y-139370952D01*
X111236190Y-138942380D02*
X111331428Y-138942380D01*
X111426666Y-138990000D01*
X111474285Y-139037619D01*
X111521904Y-139132857D01*
X111569523Y-139323333D01*
X111569523Y-139561428D01*
X111521904Y-139751904D01*
X111474285Y-139847142D01*
X111426666Y-139894761D01*
X111331428Y-139942380D01*
X111236190Y-139942380D01*
X111140952Y-139894761D01*
X111093333Y-139847142D01*
X111045714Y-139751904D01*
X110998095Y-139561428D01*
X110998095Y-139323333D01*
X111045714Y-139132857D01*
X111093333Y-139037619D01*
X111140952Y-138990000D01*
X111236190Y-138942380D01*
X112140952Y-139370952D02*
X112045714Y-139323333D01*
X111998095Y-139275714D01*
X111950476Y-139180476D01*
X111950476Y-139132857D01*
X111998095Y-139037619D01*
X112045714Y-138990000D01*
X112140952Y-138942380D01*
X112331428Y-138942380D01*
X112426666Y-138990000D01*
X112474285Y-139037619D01*
X112521904Y-139132857D01*
X112521904Y-139180476D01*
X112474285Y-139275714D01*
X112426666Y-139323333D01*
X112331428Y-139370952D01*
X112140952Y-139370952D01*
X112045714Y-139418571D01*
X111998095Y-139466190D01*
X111950476Y-139561428D01*
X111950476Y-139751904D01*
X111998095Y-139847142D01*
X112045714Y-139894761D01*
X112140952Y-139942380D01*
X112331428Y-139942380D01*
X112426666Y-139894761D01*
X112474285Y-139847142D01*
X112521904Y-139751904D01*
X112521904Y-139561428D01*
X112474285Y-139466190D01*
X112426666Y-139418571D01*
X112331428Y-139370952D01*
X113093333Y-139370952D02*
X112998095Y-139323333D01*
X112950476Y-139275714D01*
X112902857Y-139180476D01*
X112902857Y-139132857D01*
X112950476Y-139037619D01*
X112998095Y-138990000D01*
X113093333Y-138942380D01*
X113283809Y-138942380D01*
X113379047Y-138990000D01*
X113426666Y-139037619D01*
X113474285Y-139132857D01*
X113474285Y-139180476D01*
X113426666Y-139275714D01*
X113379047Y-139323333D01*
X113283809Y-139370952D01*
X113093333Y-139370952D01*
X112998095Y-139418571D01*
X112950476Y-139466190D01*
X112902857Y-139561428D01*
X112902857Y-139751904D01*
X112950476Y-139847142D01*
X112998095Y-139894761D01*
X113093333Y-139942380D01*
X113283809Y-139942380D01*
X113379047Y-139894761D01*
X113426666Y-139847142D01*
X113474285Y-139751904D01*
X113474285Y-139561428D01*
X113426666Y-139466190D01*
X113379047Y-139418571D01*
X113283809Y-139370952D01*
G04 #@! TO.C,C7*
X181277142Y-98512380D02*
X181372380Y-98512380D01*
X181467619Y-98560000D01*
X181515238Y-98607619D01*
X181562857Y-98702857D01*
X181610476Y-98893333D01*
X181610476Y-99131428D01*
X181562857Y-99321904D01*
X181515238Y-99417142D01*
X181467619Y-99464761D01*
X181372380Y-99512380D01*
X181277142Y-99512380D01*
X181181904Y-99464761D01*
X181134285Y-99417142D01*
X181086666Y-99321904D01*
X181039047Y-99131428D01*
X181039047Y-98893333D01*
X181086666Y-98702857D01*
X181134285Y-98607619D01*
X181181904Y-98560000D01*
X181277142Y-98512380D01*
X182039047Y-99417142D02*
X182086666Y-99464761D01*
X182039047Y-99512380D01*
X181991428Y-99464761D01*
X182039047Y-99417142D01*
X182039047Y-99512380D01*
X183039047Y-99512380D02*
X182467619Y-99512380D01*
X182753333Y-99512380D02*
X182753333Y-98512380D01*
X182658095Y-98655238D01*
X182562857Y-98750476D01*
X182467619Y-98798095D01*
X183896190Y-98845714D02*
X183896190Y-99512380D01*
X183467619Y-98845714D02*
X183467619Y-99369523D01*
X183515238Y-99464761D01*
X183610476Y-99512380D01*
X183753333Y-99512380D01*
X183848571Y-99464761D01*
X183896190Y-99417142D01*
X184705714Y-98988571D02*
X184372380Y-98988571D01*
X184372380Y-99512380D02*
X184372380Y-98512380D01*
X184848571Y-98512380D01*
G04 #@! TO.C,C6*
X163497142Y-98512380D02*
X163592380Y-98512380D01*
X163687619Y-98560000D01*
X163735238Y-98607619D01*
X163782857Y-98702857D01*
X163830476Y-98893333D01*
X163830476Y-99131428D01*
X163782857Y-99321904D01*
X163735238Y-99417142D01*
X163687619Y-99464761D01*
X163592380Y-99512380D01*
X163497142Y-99512380D01*
X163401904Y-99464761D01*
X163354285Y-99417142D01*
X163306666Y-99321904D01*
X163259047Y-99131428D01*
X163259047Y-98893333D01*
X163306666Y-98702857D01*
X163354285Y-98607619D01*
X163401904Y-98560000D01*
X163497142Y-98512380D01*
X164259047Y-99417142D02*
X164306666Y-99464761D01*
X164259047Y-99512380D01*
X164211428Y-99464761D01*
X164259047Y-99417142D01*
X164259047Y-99512380D01*
X165259047Y-99512380D02*
X164687619Y-99512380D01*
X164973333Y-99512380D02*
X164973333Y-98512380D01*
X164878095Y-98655238D01*
X164782857Y-98750476D01*
X164687619Y-98798095D01*
X166116190Y-98845714D02*
X166116190Y-99512380D01*
X165687619Y-98845714D02*
X165687619Y-99369523D01*
X165735238Y-99464761D01*
X165830476Y-99512380D01*
X165973333Y-99512380D01*
X166068571Y-99464761D01*
X166116190Y-99417142D01*
X166925714Y-98988571D02*
X166592380Y-98988571D01*
X166592380Y-99512380D02*
X166592380Y-98512380D01*
X167068571Y-98512380D01*
G04 #@! TO.C,C5*
X166584380Y-90542857D02*
X166584380Y-90447619D01*
X166632000Y-90352380D01*
X166679619Y-90304761D01*
X166774857Y-90257142D01*
X166965333Y-90209523D01*
X167203428Y-90209523D01*
X167393904Y-90257142D01*
X167489142Y-90304761D01*
X167536761Y-90352380D01*
X167584380Y-90447619D01*
X167584380Y-90542857D01*
X167536761Y-90638095D01*
X167489142Y-90685714D01*
X167393904Y-90733333D01*
X167203428Y-90780952D01*
X166965333Y-90780952D01*
X166774857Y-90733333D01*
X166679619Y-90685714D01*
X166632000Y-90638095D01*
X166584380Y-90542857D01*
X167489142Y-89780952D02*
X167536761Y-89733333D01*
X167584380Y-89780952D01*
X167536761Y-89828571D01*
X167489142Y-89780952D01*
X167584380Y-89780952D01*
X167584380Y-88780952D02*
X167584380Y-89352380D01*
X167584380Y-89066666D02*
X166584380Y-89066666D01*
X166727238Y-89161904D01*
X166822476Y-89257142D01*
X166870095Y-89352380D01*
X166917714Y-87923809D02*
X167584380Y-87923809D01*
X166917714Y-88352380D02*
X167441523Y-88352380D01*
X167536761Y-88304761D01*
X167584380Y-88209523D01*
X167584380Y-88066666D01*
X167536761Y-87971428D01*
X167489142Y-87923809D01*
X167060571Y-87114285D02*
X167060571Y-87447619D01*
X167584380Y-87447619D02*
X166584380Y-87447619D01*
X166584380Y-86971428D01*
G04 #@! TO.C,C4*
X127897142Y-108672380D02*
X127992380Y-108672380D01*
X128087619Y-108720000D01*
X128135238Y-108767619D01*
X128182857Y-108862857D01*
X128230476Y-109053333D01*
X128230476Y-109291428D01*
X128182857Y-109481904D01*
X128135238Y-109577142D01*
X128087619Y-109624761D01*
X127992380Y-109672380D01*
X127897142Y-109672380D01*
X127801904Y-109624761D01*
X127754285Y-109577142D01*
X127706666Y-109481904D01*
X127659047Y-109291428D01*
X127659047Y-109053333D01*
X127706666Y-108862857D01*
X127754285Y-108767619D01*
X127801904Y-108720000D01*
X127897142Y-108672380D01*
X128659047Y-109577142D02*
X128706666Y-109624761D01*
X128659047Y-109672380D01*
X128611428Y-109624761D01*
X128659047Y-109577142D01*
X128659047Y-109672380D01*
X129659047Y-109672380D02*
X129087619Y-109672380D01*
X129373333Y-109672380D02*
X129373333Y-108672380D01*
X129278095Y-108815238D01*
X129182857Y-108910476D01*
X129087619Y-108958095D01*
X130516190Y-109005714D02*
X130516190Y-109672380D01*
X130087619Y-109005714D02*
X130087619Y-109529523D01*
X130135238Y-109624761D01*
X130230476Y-109672380D01*
X130373333Y-109672380D01*
X130468571Y-109624761D01*
X130516190Y-109577142D01*
X131325714Y-109148571D02*
X130992380Y-109148571D01*
X130992380Y-109672380D02*
X130992380Y-108672380D01*
X131468571Y-108672380D01*
G04 #@! TO.C,C3*
X138097142Y-108672380D02*
X138192380Y-108672380D01*
X138287619Y-108720000D01*
X138335238Y-108767619D01*
X138382857Y-108862857D01*
X138430476Y-109053333D01*
X138430476Y-109291428D01*
X138382857Y-109481904D01*
X138335238Y-109577142D01*
X138287619Y-109624761D01*
X138192380Y-109672380D01*
X138097142Y-109672380D01*
X138001904Y-109624761D01*
X137954285Y-109577142D01*
X137906666Y-109481904D01*
X137859047Y-109291428D01*
X137859047Y-109053333D01*
X137906666Y-108862857D01*
X137954285Y-108767619D01*
X138001904Y-108720000D01*
X138097142Y-108672380D01*
X138859047Y-109577142D02*
X138906666Y-109624761D01*
X138859047Y-109672380D01*
X138811428Y-109624761D01*
X138859047Y-109577142D01*
X138859047Y-109672380D01*
X139859047Y-109672380D02*
X139287619Y-109672380D01*
X139573333Y-109672380D02*
X139573333Y-108672380D01*
X139478095Y-108815238D01*
X139382857Y-108910476D01*
X139287619Y-108958095D01*
X140716190Y-109005714D02*
X140716190Y-109672380D01*
X140287619Y-109005714D02*
X140287619Y-109529523D01*
X140335238Y-109624761D01*
X140430476Y-109672380D01*
X140573333Y-109672380D01*
X140668571Y-109624761D01*
X140716190Y-109577142D01*
X141525714Y-109148571D02*
X141192380Y-109148571D01*
X141192380Y-109672380D02*
X141192380Y-108672380D01*
X141668571Y-108672380D01*
G04 #@! TO.C,C1*
X115197142Y-83272380D02*
X115292380Y-83272380D01*
X115387619Y-83320000D01*
X115435238Y-83367619D01*
X115482857Y-83462857D01*
X115530476Y-83653333D01*
X115530476Y-83891428D01*
X115482857Y-84081904D01*
X115435238Y-84177142D01*
X115387619Y-84224761D01*
X115292380Y-84272380D01*
X115197142Y-84272380D01*
X115101904Y-84224761D01*
X115054285Y-84177142D01*
X115006666Y-84081904D01*
X114959047Y-83891428D01*
X114959047Y-83653333D01*
X115006666Y-83462857D01*
X115054285Y-83367619D01*
X115101904Y-83320000D01*
X115197142Y-83272380D01*
X115959047Y-84177142D02*
X116006666Y-84224761D01*
X115959047Y-84272380D01*
X115911428Y-84224761D01*
X115959047Y-84177142D01*
X115959047Y-84272380D01*
X116959047Y-84272380D02*
X116387619Y-84272380D01*
X116673333Y-84272380D02*
X116673333Y-83272380D01*
X116578095Y-83415238D01*
X116482857Y-83510476D01*
X116387619Y-83558095D01*
X117816190Y-83605714D02*
X117816190Y-84272380D01*
X117387619Y-83605714D02*
X117387619Y-84129523D01*
X117435238Y-84224761D01*
X117530476Y-84272380D01*
X117673333Y-84272380D01*
X117768571Y-84224761D01*
X117816190Y-84177142D01*
X118625714Y-83748571D02*
X118292380Y-83748571D01*
X118292380Y-84272380D02*
X118292380Y-83272380D01*
X118768571Y-83272380D01*
G04 #@! TD*
M02*
