G04 #@! TF.GenerationSoftware,KiCad,Pcbnew,(5.1.8)-1*
G04 #@! TF.CreationDate,2024-04-11T16:50:12-06:00*
G04 #@! TF.ProjectId,Simple_8088,53696d70-6c65-45f3-9830-38382e6b6963,rev?*
G04 #@! TF.SameCoordinates,Original*
G04 #@! TF.FileFunction,Copper,L2,Bot*
G04 #@! TF.FilePolarity,Positive*
%FSLAX46Y46*%
G04 Gerber Fmt 4.6, Leading zero omitted, Abs format (unit mm)*
G04 Created by KiCad (PCBNEW (5.1.8)-1) date 2024-04-11 16:50:12*
%MOMM*%
%LPD*%
G01*
G04 APERTURE LIST*
G04 #@! TA.AperFunction,ConnectorPad*
%ADD10R,7.620000X1.780000*%
G04 #@! TD*
G04 #@! TA.AperFunction,ComponentPad*
%ADD11O,1.600000X1.600000*%
G04 #@! TD*
G04 #@! TA.AperFunction,ComponentPad*
%ADD12C,1.600000*%
G04 #@! TD*
G04 #@! TA.AperFunction,ComponentPad*
%ADD13C,2.000000*%
G04 #@! TD*
G04 #@! TA.AperFunction,ComponentPad*
%ADD14C,1.200000*%
G04 #@! TD*
G04 #@! TA.AperFunction,ComponentPad*
%ADD15R,1.200000X1.200000*%
G04 #@! TD*
G04 #@! TA.AperFunction,ComponentPad*
%ADD16R,1.600000X1.600000*%
G04 #@! TD*
G04 #@! TA.AperFunction,ViaPad*
%ADD17C,0.800000*%
G04 #@! TD*
G04 #@! TA.AperFunction,Conductor*
%ADD18C,0.330200*%
G04 #@! TD*
G04 #@! TA.AperFunction,Conductor*
%ADD19C,0.250000*%
G04 #@! TD*
G04 APERTURE END LIST*
D10*
G04 #@! TO.P,J1,22*
G04 #@! TO.N,/5+*
X194310000Y-138430000D03*
G04 #@! TO.P,J1,21*
G04 #@! TO.N,/GND*
X194310000Y-135890000D03*
G04 #@! TO.P,J1,20*
G04 #@! TO.N,/D0*
X194310000Y-133350000D03*
G04 #@! TO.P,J1,19*
G04 #@! TO.N,/D1*
X194310000Y-130810000D03*
G04 #@! TO.P,J1,18*
G04 #@! TO.N,/D2*
X194310000Y-128270000D03*
G04 #@! TO.P,J1,17*
G04 #@! TO.N,/D3*
X194310000Y-125730000D03*
G04 #@! TO.P,J1,16*
G04 #@! TO.N,/D4*
X194310000Y-123190000D03*
G04 #@! TO.P,J1,15*
G04 #@! TO.N,/D5*
X194310000Y-120650000D03*
G04 #@! TO.P,J1,14*
G04 #@! TO.N,/D6*
X194310000Y-118110000D03*
G04 #@! TO.P,J1,13*
G04 #@! TO.N,/D7*
X194310000Y-115570000D03*
G04 #@! TO.P,J1,12*
G04 #@! TO.N,/A0*
X194310000Y-113030000D03*
G04 #@! TO.P,J1,11*
G04 #@! TO.N,/A1*
X194310000Y-110490000D03*
G04 #@! TO.P,J1,10*
G04 #@! TO.N,/A2*
X194310000Y-107950000D03*
G04 #@! TO.P,J1,9*
G04 #@! TO.N,/A3*
X194310000Y-105410000D03*
G04 #@! TO.P,J1,8*
G04 #@! TO.N,/A4*
X194310000Y-102870000D03*
G04 #@! TO.P,J1,7*
G04 #@! TO.N,/A5*
X194310000Y-100330000D03*
G04 #@! TO.P,J1,6*
G04 #@! TO.N,/A6*
X194310000Y-97790000D03*
G04 #@! TO.P,J1,5*
G04 #@! TO.N,/A7*
X194310000Y-95250000D03*
G04 #@! TO.P,J1,4*
G04 #@! TO.N,/IOWR*
X194310000Y-92710000D03*
G04 #@! TO.P,J1,3*
G04 #@! TO.N,/IORD*
X194310000Y-90170000D03*
G04 #@! TO.P,J1,2*
G04 #@! TO.N,/GND*
X194310000Y-87630000D03*
G04 #@! TO.P,J1,1*
G04 #@! TO.N,/5+*
X194310000Y-85090000D03*
G04 #@! TD*
D11*
G04 #@! TO.P,R1,2*
G04 #@! TO.N,/5+*
X147320000Y-97028000D03*
D12*
G04 #@! TO.P,R1,1*
G04 #@! TO.N,/RESET*
X137160000Y-97028000D03*
G04 #@! TD*
D13*
G04 #@! TO.P,SW1,1*
G04 #@! TO.N,/GND*
X132080000Y-86940000D03*
G04 #@! TO.P,SW1,2*
G04 #@! TO.N,/RESET*
X132080000Y-91440000D03*
G04 #@! TO.P,SW1,1*
G04 #@! TO.N,/GND*
X125580000Y-86940000D03*
G04 #@! TO.P,SW1,2*
G04 #@! TO.N,/RESET*
X125580000Y-91440000D03*
G04 #@! TD*
D14*
G04 #@! TO.P,C8,2*
G04 #@! TO.N,/GND*
X138660000Y-91440000D03*
D15*
G04 #@! TO.P,C8,1*
G04 #@! TO.N,/RESET*
X137160000Y-91440000D03*
G04 #@! TD*
D12*
G04 #@! TO.P,C2,2*
G04 #@! TO.N,/5+*
X141732000Y-86360000D03*
G04 #@! TO.P,C2,1*
G04 #@! TO.N,/GND*
X141732000Y-91360000D03*
G04 #@! TD*
G04 #@! TO.P,X1,4*
G04 #@! TO.N,/GND*
X132080000Y-104140000D03*
G04 #@! TO.P,X1,5*
G04 #@! TO.N,/CLK*
X132080000Y-96520000D03*
G04 #@! TO.P,X1,8*
G04 #@! TO.N,/5+*
X124460000Y-96520000D03*
D16*
G04 #@! TO.P,X1,1*
G04 #@! TO.N,Net-(X1-Pad1)*
X124460000Y-104140000D03*
G04 #@! TD*
D11*
G04 #@! TO.P,U5,14*
G04 #@! TO.N,/5+*
X170180000Y-86360000D03*
G04 #@! TO.P,U5,7*
G04 #@! TO.N,/GND*
X185420000Y-93980000D03*
G04 #@! TO.P,U5,13*
G04 #@! TO.N,N/C*
X172720000Y-86360000D03*
G04 #@! TO.P,U5,6*
X182880000Y-93980000D03*
G04 #@! TO.P,U5,12*
X175260000Y-86360000D03*
G04 #@! TO.P,U5,5*
X180340000Y-93980000D03*
G04 #@! TO.P,U5,11*
X177800000Y-86360000D03*
G04 #@! TO.P,U5,4*
G04 #@! TO.N,/RESET_*
X177800000Y-93980000D03*
G04 #@! TO.P,U5,10*
G04 #@! TO.N,N/C*
X180340000Y-86360000D03*
G04 #@! TO.P,U5,3*
G04 #@! TO.N,/RESET*
X175260000Y-93980000D03*
G04 #@! TO.P,U5,9*
G04 #@! TO.N,N/C*
X182880000Y-86360000D03*
G04 #@! TO.P,U5,2*
G04 #@! TO.N,/A15_*
X172720000Y-93980000D03*
G04 #@! TO.P,U5,8*
G04 #@! TO.N,N/C*
X185420000Y-86360000D03*
D16*
G04 #@! TO.P,U5,1*
G04 #@! TO.N,/A15*
X170180000Y-93980000D03*
G04 #@! TD*
D11*
G04 #@! TO.P,U7,28*
G04 #@! TO.N,/5+*
X185420000Y-104140000D03*
G04 #@! TO.P,U7,14*
G04 #@! TO.N,/GND*
X170180000Y-137160000D03*
G04 #@! TO.P,U7,27*
G04 #@! TO.N,/MWR*
X185420000Y-106680000D03*
G04 #@! TO.P,U7,13*
G04 #@! TO.N,/D2*
X170180000Y-134620000D03*
G04 #@! TO.P,U7,26*
G04 #@! TO.N,/A13*
X185420000Y-109220000D03*
G04 #@! TO.P,U7,12*
G04 #@! TO.N,/D1*
X170180000Y-132080000D03*
G04 #@! TO.P,U7,25*
G04 #@! TO.N,/A8*
X185420000Y-111760000D03*
G04 #@! TO.P,U7,11*
G04 #@! TO.N,/D0*
X170180000Y-129540000D03*
G04 #@! TO.P,U7,24*
G04 #@! TO.N,/A9*
X185420000Y-114300000D03*
G04 #@! TO.P,U7,10*
G04 #@! TO.N,/A0*
X170180000Y-127000000D03*
G04 #@! TO.P,U7,23*
G04 #@! TO.N,/A11*
X185420000Y-116840000D03*
G04 #@! TO.P,U7,9*
G04 #@! TO.N,/A1*
X170180000Y-124460000D03*
G04 #@! TO.P,U7,22*
G04 #@! TO.N,/MRD*
X185420000Y-119380000D03*
G04 #@! TO.P,U7,8*
G04 #@! TO.N,/A2*
X170180000Y-121920000D03*
G04 #@! TO.P,U7,21*
G04 #@! TO.N,/A10*
X185420000Y-121920000D03*
G04 #@! TO.P,U7,7*
G04 #@! TO.N,/A3*
X170180000Y-119380000D03*
G04 #@! TO.P,U7,20*
G04 #@! TO.N,/A15_*
X185420000Y-124460000D03*
G04 #@! TO.P,U7,6*
G04 #@! TO.N,/A4*
X170180000Y-116840000D03*
G04 #@! TO.P,U7,19*
G04 #@! TO.N,/D7*
X185420000Y-127000000D03*
G04 #@! TO.P,U7,5*
G04 #@! TO.N,/A5*
X170180000Y-114300000D03*
G04 #@! TO.P,U7,18*
G04 #@! TO.N,/D6*
X185420000Y-129540000D03*
G04 #@! TO.P,U7,4*
G04 #@! TO.N,/A6*
X170180000Y-111760000D03*
G04 #@! TO.P,U7,17*
G04 #@! TO.N,/D5*
X185420000Y-132080000D03*
G04 #@! TO.P,U7,3*
G04 #@! TO.N,/A7*
X170180000Y-109220000D03*
G04 #@! TO.P,U7,16*
G04 #@! TO.N,/D4*
X185420000Y-134620000D03*
G04 #@! TO.P,U7,2*
G04 #@! TO.N,/A12*
X170180000Y-106680000D03*
G04 #@! TO.P,U7,15*
G04 #@! TO.N,/D3*
X185420000Y-137160000D03*
D16*
G04 #@! TO.P,U7,1*
G04 #@! TO.N,/A14*
X170180000Y-104140000D03*
G04 #@! TD*
D11*
G04 #@! TO.P,U6,28*
G04 #@! TO.N,/5+*
X167640000Y-104140000D03*
G04 #@! TO.P,U6,14*
G04 #@! TO.N,/GND*
X152400000Y-137160000D03*
G04 #@! TO.P,U6,27*
G04 #@! TO.N,/MWR*
X167640000Y-106680000D03*
G04 #@! TO.P,U6,13*
G04 #@! TO.N,/D2*
X152400000Y-134620000D03*
G04 #@! TO.P,U6,26*
G04 #@! TO.N,/A13*
X167640000Y-109220000D03*
G04 #@! TO.P,U6,12*
G04 #@! TO.N,/D1*
X152400000Y-132080000D03*
G04 #@! TO.P,U6,25*
G04 #@! TO.N,/A8*
X167640000Y-111760000D03*
G04 #@! TO.P,U6,11*
G04 #@! TO.N,/D0*
X152400000Y-129540000D03*
G04 #@! TO.P,U6,24*
G04 #@! TO.N,/A9*
X167640000Y-114300000D03*
G04 #@! TO.P,U6,10*
G04 #@! TO.N,/A0*
X152400000Y-127000000D03*
G04 #@! TO.P,U6,23*
G04 #@! TO.N,/A11*
X167640000Y-116840000D03*
G04 #@! TO.P,U6,9*
G04 #@! TO.N,/A1*
X152400000Y-124460000D03*
G04 #@! TO.P,U6,22*
G04 #@! TO.N,/MRD*
X167640000Y-119380000D03*
G04 #@! TO.P,U6,8*
G04 #@! TO.N,/A2*
X152400000Y-121920000D03*
G04 #@! TO.P,U6,21*
G04 #@! TO.N,/A10*
X167640000Y-121920000D03*
G04 #@! TO.P,U6,7*
G04 #@! TO.N,/A3*
X152400000Y-119380000D03*
G04 #@! TO.P,U6,20*
G04 #@! TO.N,/A15*
X167640000Y-124460000D03*
G04 #@! TO.P,U6,6*
G04 #@! TO.N,/A4*
X152400000Y-116840000D03*
G04 #@! TO.P,U6,19*
G04 #@! TO.N,/D7*
X167640000Y-127000000D03*
G04 #@! TO.P,U6,5*
G04 #@! TO.N,/A5*
X152400000Y-114300000D03*
G04 #@! TO.P,U6,18*
G04 #@! TO.N,/D6*
X167640000Y-129540000D03*
G04 #@! TO.P,U6,4*
G04 #@! TO.N,/A6*
X152400000Y-111760000D03*
G04 #@! TO.P,U6,17*
G04 #@! TO.N,/D5*
X167640000Y-132080000D03*
G04 #@! TO.P,U6,3*
G04 #@! TO.N,/A7*
X152400000Y-109220000D03*
G04 #@! TO.P,U6,16*
G04 #@! TO.N,/D4*
X167640000Y-134620000D03*
G04 #@! TO.P,U6,2*
G04 #@! TO.N,/A12*
X152400000Y-106680000D03*
G04 #@! TO.P,U6,15*
G04 #@! TO.N,/D3*
X167640000Y-137160000D03*
D16*
G04 #@! TO.P,U6,1*
G04 #@! TO.N,/A14*
X152400000Y-104140000D03*
G04 #@! TD*
D11*
G04 #@! TO.P,U4,20*
G04 #@! TO.N,/5+*
X132080000Y-114300000D03*
G04 #@! TO.P,U4,10*
G04 #@! TO.N,/GND*
X124460000Y-137160000D03*
G04 #@! TO.P,U4,19*
G04 #@! TO.N,/DEN*
X132080000Y-116840000D03*
G04 #@! TO.P,U4,9*
G04 #@! TO.N,/AD0*
X124460000Y-134620000D03*
G04 #@! TO.P,U4,18*
G04 #@! TO.N,/D7*
X132080000Y-119380000D03*
G04 #@! TO.P,U4,8*
G04 #@! TO.N,/AD1*
X124460000Y-132080000D03*
G04 #@! TO.P,U4,17*
G04 #@! TO.N,/D6*
X132080000Y-121920000D03*
G04 #@! TO.P,U4,7*
G04 #@! TO.N,/AD2*
X124460000Y-129540000D03*
G04 #@! TO.P,U4,16*
G04 #@! TO.N,/D5*
X132080000Y-124460000D03*
G04 #@! TO.P,U4,6*
G04 #@! TO.N,/AD3*
X124460000Y-127000000D03*
G04 #@! TO.P,U4,15*
G04 #@! TO.N,/D4*
X132080000Y-127000000D03*
G04 #@! TO.P,U4,5*
G04 #@! TO.N,/AD4*
X124460000Y-124460000D03*
G04 #@! TO.P,U4,14*
G04 #@! TO.N,/D3*
X132080000Y-129540000D03*
G04 #@! TO.P,U4,4*
G04 #@! TO.N,/AD5*
X124460000Y-121920000D03*
G04 #@! TO.P,U4,13*
G04 #@! TO.N,/D2*
X132080000Y-132080000D03*
G04 #@! TO.P,U4,3*
G04 #@! TO.N,/AD6*
X124460000Y-119380000D03*
G04 #@! TO.P,U4,12*
G04 #@! TO.N,/D1*
X132080000Y-134620000D03*
G04 #@! TO.P,U4,2*
G04 #@! TO.N,/AD7*
X124460000Y-116840000D03*
G04 #@! TO.P,U4,11*
G04 #@! TO.N,/D0*
X132080000Y-137160000D03*
D16*
G04 #@! TO.P,U4,1*
G04 #@! TO.N,/DTR*
X124460000Y-114300000D03*
G04 #@! TD*
D11*
G04 #@! TO.P,U3,20*
G04 #@! TO.N,/5+*
X142240000Y-114300000D03*
G04 #@! TO.P,U3,10*
G04 #@! TO.N,/GND*
X134620000Y-137160000D03*
G04 #@! TO.P,U3,19*
G04 #@! TO.N,/A7*
X142240000Y-116840000D03*
G04 #@! TO.P,U3,9*
G04 #@! TO.N,/AD0*
X134620000Y-134620000D03*
G04 #@! TO.P,U3,18*
G04 #@! TO.N,/A6*
X142240000Y-119380000D03*
G04 #@! TO.P,U3,8*
G04 #@! TO.N,/AD1*
X134620000Y-132080000D03*
G04 #@! TO.P,U3,17*
G04 #@! TO.N,/A5*
X142240000Y-121920000D03*
G04 #@! TO.P,U3,7*
G04 #@! TO.N,/AD2*
X134620000Y-129540000D03*
G04 #@! TO.P,U3,16*
G04 #@! TO.N,/A4*
X142240000Y-124460000D03*
G04 #@! TO.P,U3,6*
G04 #@! TO.N,/AD3*
X134620000Y-127000000D03*
G04 #@! TO.P,U3,15*
G04 #@! TO.N,/A3*
X142240000Y-127000000D03*
G04 #@! TO.P,U3,5*
G04 #@! TO.N,/AD4*
X134620000Y-124460000D03*
G04 #@! TO.P,U3,14*
G04 #@! TO.N,/A2*
X142240000Y-129540000D03*
G04 #@! TO.P,U3,4*
G04 #@! TO.N,/AD5*
X134620000Y-121920000D03*
G04 #@! TO.P,U3,13*
G04 #@! TO.N,/A1*
X142240000Y-132080000D03*
G04 #@! TO.P,U3,3*
G04 #@! TO.N,/AD6*
X134620000Y-119380000D03*
G04 #@! TO.P,U3,12*
G04 #@! TO.N,/A0*
X142240000Y-134620000D03*
G04 #@! TO.P,U3,2*
G04 #@! TO.N,/AD7*
X134620000Y-116840000D03*
G04 #@! TO.P,U3,11*
G04 #@! TO.N,/ALE*
X142240000Y-137160000D03*
D16*
G04 #@! TO.P,U3,1*
G04 #@! TO.N,/HOLDA*
X134620000Y-114300000D03*
G04 #@! TD*
D11*
G04 #@! TO.P,U2,16*
G04 #@! TO.N,/5+*
X144780000Y-86360000D03*
G04 #@! TO.P,U2,8*
G04 #@! TO.N,/GND*
X162560000Y-93980000D03*
G04 #@! TO.P,U2,15*
G04 #@! TO.N,/HOLDA*
X147320000Y-86360000D03*
G04 #@! TO.P,U2,7*
G04 #@! TO.N,/IORD*
X160020000Y-93980000D03*
G04 #@! TO.P,U2,14*
G04 #@! TO.N,/5+*
X149860000Y-86360000D03*
G04 #@! TO.P,U2,6*
G04 #@! TO.N,/RD*
X157480000Y-93980000D03*
G04 #@! TO.P,U2,13*
G04 #@! TO.N,/WR*
X152400000Y-86360000D03*
G04 #@! TO.P,U2,5*
G04 #@! TO.N,/5+*
X154940000Y-93980000D03*
G04 #@! TO.P,U2,12*
G04 #@! TO.N,/IOWR*
X154940000Y-86360000D03*
G04 #@! TO.P,U2,4*
G04 #@! TO.N,/MRD*
X152400000Y-93980000D03*
G04 #@! TO.P,U2,11*
G04 #@! TO.N,/WR*
X157480000Y-86360000D03*
G04 #@! TO.P,U2,3*
G04 #@! TO.N,/5+*
X149860000Y-93980000D03*
G04 #@! TO.P,U2,10*
X160020000Y-86360000D03*
G04 #@! TO.P,U2,2*
G04 #@! TO.N,/RD*
X147320000Y-93980000D03*
G04 #@! TO.P,U2,9*
G04 #@! TO.N,/MWR*
X162560000Y-86360000D03*
D16*
G04 #@! TO.P,U2,1*
G04 #@! TO.N,/IO_M*
X144780000Y-93980000D03*
G04 #@! TD*
D11*
G04 #@! TO.P,U1,40*
G04 #@! TO.N,/5+*
X119380000Y-88900000D03*
G04 #@! TO.P,U1,20*
G04 #@! TO.N,/GND*
X104140000Y-137160000D03*
G04 #@! TO.P,U1,39*
G04 #@! TO.N,/A15*
X119380000Y-91440000D03*
G04 #@! TO.P,U1,19*
G04 #@! TO.N,/CLK*
X104140000Y-134620000D03*
G04 #@! TO.P,U1,38*
G04 #@! TO.N,Net-(U1-Pad38)*
X119380000Y-93980000D03*
G04 #@! TO.P,U1,18*
G04 #@! TO.N,/GND*
X104140000Y-132080000D03*
G04 #@! TO.P,U1,37*
G04 #@! TO.N,Net-(U1-Pad37)*
X119380000Y-96520000D03*
G04 #@! TO.P,U1,17*
G04 #@! TO.N,/GND*
X104140000Y-129540000D03*
G04 #@! TO.P,U1,36*
G04 #@! TO.N,Net-(U1-Pad36)*
X119380000Y-99060000D03*
G04 #@! TO.P,U1,16*
G04 #@! TO.N,/AD0*
X104140000Y-127000000D03*
G04 #@! TO.P,U1,35*
G04 #@! TO.N,Net-(U1-Pad35)*
X119380000Y-101600000D03*
G04 #@! TO.P,U1,15*
G04 #@! TO.N,/AD1*
X104140000Y-124460000D03*
G04 #@! TO.P,U1,34*
G04 #@! TO.N,Net-(U1-Pad34)*
X119380000Y-104140000D03*
G04 #@! TO.P,U1,14*
G04 #@! TO.N,/AD2*
X104140000Y-121920000D03*
G04 #@! TO.P,U1,33*
G04 #@! TO.N,/5+*
X119380000Y-106680000D03*
G04 #@! TO.P,U1,13*
G04 #@! TO.N,/AD3*
X104140000Y-119380000D03*
G04 #@! TO.P,U1,32*
G04 #@! TO.N,/RD*
X119380000Y-109220000D03*
G04 #@! TO.P,U1,12*
G04 #@! TO.N,/AD4*
X104140000Y-116840000D03*
G04 #@! TO.P,U1,31*
G04 #@! TO.N,/GND*
X119380000Y-111760000D03*
G04 #@! TO.P,U1,11*
G04 #@! TO.N,/AD5*
X104140000Y-114300000D03*
G04 #@! TO.P,U1,30*
G04 #@! TO.N,/HOLDA*
X119380000Y-114300000D03*
G04 #@! TO.P,U1,10*
G04 #@! TO.N,/AD6*
X104140000Y-111760000D03*
G04 #@! TO.P,U1,29*
G04 #@! TO.N,/WR*
X119380000Y-116840000D03*
G04 #@! TO.P,U1,9*
G04 #@! TO.N,/AD7*
X104140000Y-109220000D03*
G04 #@! TO.P,U1,28*
G04 #@! TO.N,/IO_M*
X119380000Y-119380000D03*
G04 #@! TO.P,U1,8*
G04 #@! TO.N,/A8*
X104140000Y-106680000D03*
G04 #@! TO.P,U1,27*
G04 #@! TO.N,/DTR*
X119380000Y-121920000D03*
G04 #@! TO.P,U1,7*
G04 #@! TO.N,/A9*
X104140000Y-104140000D03*
G04 #@! TO.P,U1,26*
G04 #@! TO.N,/DEN*
X119380000Y-124460000D03*
G04 #@! TO.P,U1,6*
G04 #@! TO.N,/A10*
X104140000Y-101600000D03*
G04 #@! TO.P,U1,25*
G04 #@! TO.N,/ALE*
X119380000Y-127000000D03*
G04 #@! TO.P,U1,5*
G04 #@! TO.N,/A11*
X104140000Y-99060000D03*
G04 #@! TO.P,U1,24*
G04 #@! TO.N,Net-(U1-Pad24)*
X119380000Y-129540000D03*
G04 #@! TO.P,U1,4*
G04 #@! TO.N,/A12*
X104140000Y-96520000D03*
G04 #@! TO.P,U1,23*
G04 #@! TO.N,/GND*
X119380000Y-132080000D03*
G04 #@! TO.P,U1,3*
G04 #@! TO.N,/A13*
X104140000Y-93980000D03*
G04 #@! TO.P,U1,22*
G04 #@! TO.N,/5+*
X119380000Y-134620000D03*
G04 #@! TO.P,U1,2*
G04 #@! TO.N,/A14*
X104140000Y-91440000D03*
G04 #@! TO.P,U1,21*
G04 #@! TO.N,/RESET_*
X119380000Y-137160000D03*
D16*
G04 #@! TO.P,U1,1*
G04 #@! TO.N,/GND*
X104140000Y-88900000D03*
G04 #@! TD*
D12*
G04 #@! TO.P,C7,2*
G04 #@! TO.N,/5+*
X185420000Y-101092000D03*
G04 #@! TO.P,C7,1*
G04 #@! TO.N,/GND*
X180420000Y-101092000D03*
G04 #@! TD*
G04 #@! TO.P,C6,2*
G04 #@! TO.N,/5+*
X167640000Y-101092000D03*
G04 #@! TO.P,C6,1*
G04 #@! TO.N,/GND*
X162640000Y-101092000D03*
G04 #@! TD*
G04 #@! TO.P,C5,2*
G04 #@! TO.N,/5+*
X167132000Y-86360000D03*
G04 #@! TO.P,C5,1*
G04 #@! TO.N,/GND*
X167132000Y-91360000D03*
G04 #@! TD*
G04 #@! TO.P,C4,2*
G04 #@! TO.N,/5+*
X132080000Y-111252000D03*
G04 #@! TO.P,C4,1*
G04 #@! TO.N,/GND*
X127080000Y-111252000D03*
G04 #@! TD*
G04 #@! TO.P,C3,2*
G04 #@! TO.N,/5+*
X142240000Y-111252000D03*
G04 #@! TO.P,C3,1*
G04 #@! TO.N,/GND*
X137240000Y-111252000D03*
G04 #@! TD*
G04 #@! TO.P,C1,2*
G04 #@! TO.N,/5+*
X119380000Y-85852000D03*
G04 #@! TO.P,C1,1*
G04 #@! TO.N,/GND*
X114380000Y-85852000D03*
G04 #@! TD*
D17*
G04 #@! TO.N,/5+*
X189484000Y-85090000D03*
X167132000Y-84582000D03*
X160020000Y-84582000D03*
X149860000Y-84582000D03*
X142240000Y-84582000D03*
X156210000Y-84582000D03*
X121412000Y-85344000D03*
X121412000Y-106172000D03*
X121412000Y-96012000D03*
X117094000Y-106172000D03*
X117094000Y-134112000D03*
X149860000Y-97028000D03*
X117094000Y-139954000D03*
X189484000Y-138430000D03*
G04 #@! TO.N,/GND*
X137668000Y-137668000D03*
X114808000Y-137668000D03*
X114808000Y-88900000D03*
X114808000Y-129540000D03*
X114808000Y-132080000D03*
X114808000Y-111760000D03*
X189484000Y-87630000D03*
X162560000Y-91186000D03*
X185420000Y-91186000D03*
X186944000Y-87630002D03*
X183896000Y-101600000D03*
X162814000Y-136652000D03*
X189484000Y-135890000D03*
X138684000Y-87122000D03*
X133731000Y-112141000D03*
G04 #@! TO.N,/A15*
X169672000Y-90170000D03*
X171958000Y-125730000D03*
G04 #@! TO.N,/CLK*
X129540000Y-135889992D03*
X129540000Y-97028000D03*
G04 #@! TO.N,/AD0*
X108204000Y-127508000D03*
X108204000Y-133350000D03*
G04 #@! TO.N,/AD1*
X108966000Y-124968000D03*
X108966000Y-130810000D03*
G04 #@! TO.N,/AD2*
X109728000Y-122428000D03*
X109728000Y-128270000D03*
G04 #@! TO.N,/AD3*
X110490000Y-119888000D03*
X110490000Y-125730000D03*
G04 #@! TO.N,/RD*
X145796000Y-108458000D03*
X146812000Y-90170000D03*
X156972000Y-90170000D03*
G04 #@! TO.N,/AD4*
X111252000Y-117348000D03*
X111252000Y-123190000D03*
G04 #@! TO.N,/AD5*
X112014000Y-114808000D03*
X112014000Y-120650000D03*
G04 #@! TO.N,/HOLDA*
X143510000Y-115570000D03*
G04 #@! TO.N,/AD6*
X112776000Y-112268000D03*
X112776000Y-118110000D03*
G04 #@! TO.N,/WR*
X121158000Y-117348000D03*
X121158000Y-109220000D03*
X149860000Y-109220000D03*
X156972000Y-88138000D03*
X151892000Y-88138000D03*
G04 #@! TO.N,/AD7*
X113538000Y-109728000D03*
X113538000Y-115570000D03*
G04 #@! TO.N,/IO_M*
X121920000Y-119888000D03*
X121920000Y-109982000D03*
X144526000Y-109728000D03*
G04 #@! TO.N,/A8*
X159512000Y-107950000D03*
X159512000Y-112268000D03*
G04 #@! TO.N,/DTR*
X126492000Y-123190000D03*
X126492000Y-114808000D03*
G04 #@! TO.N,/A9*
X158750000Y-105410000D03*
X158750000Y-114808000D03*
G04 #@! TO.N,/DEN*
X127254000Y-116332000D03*
X127254000Y-125730000D03*
G04 #@! TO.N,/A10*
X157988000Y-102870000D03*
X157988000Y-122428000D03*
G04 #@! TO.N,/ALE*
X136398000Y-136652000D03*
X130302000Y-129032000D03*
G04 #@! TO.N,/A11*
X157226000Y-100330000D03*
X157226000Y-117348000D03*
G04 #@! TO.N,/A12*
X156464000Y-106172000D03*
X156464000Y-98552000D03*
G04 #@! TO.N,/A13*
X155702000Y-109728000D03*
X155702000Y-95758000D03*
G04 #@! TO.N,/A14*
X134366000Y-103632000D03*
X134366000Y-93218000D03*
G04 #@! TO.N,/RESET_*
X173482000Y-96012000D03*
X173482000Y-138938000D03*
X121920000Y-138938000D03*
G04 #@! TO.N,/IORD*
X189484000Y-90170000D03*
X160528000Y-89662000D03*
G04 #@! TO.N,/IOWR*
X189484000Y-92710000D03*
X154432000Y-88900000D03*
X184404000Y-88900000D03*
X184404000Y-92456000D03*
G04 #@! TO.N,/MRD*
X155194000Y-119888000D03*
X152908000Y-97028000D03*
X154940000Y-97028000D03*
G04 #@! TO.N,/MWR*
X164338000Y-107188000D03*
X164338000Y-86868000D03*
G04 #@! TO.N,/A7*
X189484000Y-95250000D03*
X176784000Y-108712000D03*
X176784000Y-96012000D03*
G04 #@! TO.N,/A6*
X189484000Y-97790000D03*
X177546000Y-111252000D03*
X177546000Y-97790000D03*
G04 #@! TO.N,/A5*
X189484000Y-100330000D03*
X178308000Y-113792000D03*
X178308000Y-99060000D03*
G04 #@! TO.N,/A4*
X174498000Y-102870000D03*
X174498000Y-116332000D03*
X189484000Y-102870000D03*
G04 #@! TO.N,/A3*
X175260000Y-105410000D03*
X175260000Y-118872000D03*
X189484000Y-105410000D03*
G04 #@! TO.N,/A2*
X176022000Y-107950000D03*
X176022000Y-121412000D03*
X189484000Y-107950000D03*
G04 #@! TO.N,/A1*
X176784000Y-110490000D03*
X176784000Y-123952000D03*
X189484000Y-110490000D03*
G04 #@! TO.N,/A0*
X177546000Y-113030000D03*
X177546000Y-126492000D03*
X189484000Y-113030000D03*
G04 #@! TO.N,/D7*
X160274000Y-118110000D03*
X160274000Y-127508000D03*
X178308000Y-115570000D03*
X178308000Y-127508000D03*
X189484000Y-115570000D03*
G04 #@! TO.N,/D6*
X159512000Y-130048000D03*
X159512000Y-120650000D03*
X179070000Y-118110000D03*
X179070000Y-130048000D03*
X189484000Y-118110000D03*
G04 #@! TO.N,/D5*
X158750000Y-132588000D03*
X158750000Y-123190000D03*
X179832000Y-120650000D03*
X179832000Y-132588000D03*
X189484000Y-120650000D03*
G04 #@! TO.N,/D4*
X157988000Y-135128000D03*
X157988000Y-125730000D03*
X180594000Y-123190000D03*
X180594000Y-135128000D03*
X189484000Y-123190000D03*
G04 #@! TO.N,/D3*
X157226000Y-137668000D03*
X157226000Y-128270000D03*
X181356000Y-125730000D03*
X181356000Y-137668000D03*
X189484000Y-125730000D03*
G04 #@! TO.N,/D2*
X156464000Y-130810000D03*
X156464000Y-134112000D03*
X182118000Y-128270000D03*
X182118000Y-134112000D03*
X189484000Y-128270000D03*
G04 #@! TO.N,/D1*
X189484000Y-130810000D03*
G04 #@! TO.N,/D0*
X154940000Y-135890000D03*
X154940000Y-129032000D03*
X183642000Y-133350000D03*
X183642000Y-129032000D03*
X189484000Y-133350000D03*
G04 #@! TO.N,/RESET*
X137184000Y-92686000D03*
X174752000Y-92202000D03*
G04 #@! TO.N,/A15_*
X172720000Y-124968000D03*
G04 #@! TD*
D18*
G04 #@! TO.N,/5+*
X142240000Y-111252000D02*
X142240000Y-114300000D01*
X132080000Y-111252000D02*
X132080000Y-114300000D01*
X149860000Y-86360000D02*
X149860000Y-87884000D01*
X119380000Y-85852000D02*
X119380000Y-88900000D01*
X189484000Y-85090000D02*
X194310000Y-85090000D01*
X142240000Y-94334998D02*
X143256000Y-93318998D01*
X142240000Y-111252000D02*
X142240000Y-94334998D01*
X143256000Y-93318998D02*
X143256000Y-90678000D01*
X143256000Y-90678000D02*
X142240000Y-89662000D01*
X142240000Y-86868000D02*
X141732000Y-86360000D01*
X142240000Y-89662000D02*
X142240000Y-86868000D01*
X149860000Y-87884000D02*
X149860000Y-93980000D01*
X141732000Y-86360000D02*
X142240000Y-85852000D01*
X142240000Y-85852000D02*
X142240000Y-84582000D01*
X149860000Y-86360000D02*
X149860000Y-84582000D01*
X160020000Y-86360000D02*
X160020000Y-84582000D01*
X167132000Y-86360000D02*
X167132000Y-84582000D01*
X154940000Y-93980000D02*
X155448000Y-93472000D01*
X155448000Y-93472000D02*
X155448000Y-88138000D01*
X155448000Y-88138000D02*
X156210000Y-87376000D01*
X156210000Y-87376000D02*
X156210000Y-84582000D01*
X121412000Y-85344000D02*
X121412000Y-96012000D01*
X121412000Y-96012000D02*
X121412000Y-106172000D01*
X117094000Y-106172000D02*
X117094000Y-134112000D01*
X149860000Y-93980000D02*
X149860000Y-97028000D01*
X167640000Y-101092000D02*
X167640000Y-104140000D01*
X185420000Y-101092000D02*
X185420000Y-104140000D01*
X167640000Y-86868000D02*
X167132000Y-86360000D01*
X167640000Y-89154000D02*
X167640000Y-86868000D01*
X168402000Y-92710000D02*
X168402000Y-89916000D01*
X168148000Y-92964000D02*
X168402000Y-92710000D01*
X168402000Y-89916000D02*
X167640000Y-89154000D01*
X168148000Y-100584000D02*
X168148000Y-92964000D01*
X167640000Y-101092000D02*
X168148000Y-100584000D01*
X117094000Y-139954000D02*
X117094000Y-134112000D01*
X189484000Y-138430000D02*
X194310000Y-138430000D01*
G04 #@! TO.N,/GND*
X137240000Y-111252000D02*
X137240000Y-111332000D01*
X137240000Y-111332000D02*
X137668000Y-111760000D01*
X137668000Y-111760000D02*
X137668000Y-137668000D01*
X114380000Y-85852000D02*
X114380000Y-85932000D01*
X114380000Y-85932000D02*
X114808000Y-86360000D01*
X114808000Y-86360000D02*
X114808000Y-137668000D01*
X189484000Y-87630000D02*
X194310000Y-87630000D01*
X185420000Y-91186000D02*
X185420000Y-93980000D01*
X162560000Y-91186000D02*
X162560000Y-93980000D01*
X186943998Y-87630002D02*
X186944000Y-87630002D01*
X185420000Y-89154000D02*
X186943998Y-87630002D01*
X185420000Y-91186000D02*
X185420000Y-89154000D01*
X185420000Y-93980000D02*
X184912000Y-94488000D01*
X184912000Y-94488000D02*
X184912000Y-98298000D01*
X184912000Y-98298000D02*
X183896000Y-99314000D01*
X183896000Y-99314000D02*
X183896000Y-101600000D01*
X162560000Y-101012000D02*
X162640000Y-101092000D01*
X162560000Y-93980000D02*
X162560000Y-101012000D01*
X162640000Y-101092000D02*
X162640000Y-101172000D01*
X162640000Y-101172000D02*
X162814000Y-101346000D01*
X162814000Y-101346000D02*
X162814000Y-136652000D01*
X189484000Y-135890000D02*
X194310000Y-135890000D01*
X138684000Y-87122000D02*
X138684000Y-91440000D01*
X133731000Y-105791000D02*
X132080000Y-104140000D01*
X133731000Y-112141000D02*
X133731000Y-105791000D01*
D19*
G04 #@! TO.N,/A15*
X169672000Y-93472000D02*
X170180000Y-93980000D01*
X169672000Y-90170000D02*
X169672000Y-93472000D01*
X171958000Y-125730000D02*
X171958000Y-102362000D01*
X171958000Y-102362000D02*
X170688000Y-101092000D01*
X170688000Y-94488000D02*
X170180000Y-93980000D01*
X170688000Y-101092000D02*
X170688000Y-94488000D01*
G04 #@! TO.N,/CLK*
X129540000Y-135889992D02*
X129540000Y-97028000D01*
G04 #@! TO.N,/AD0*
X108204000Y-127508000D02*
X108204000Y-133350000D01*
G04 #@! TO.N,/AD1*
X108966000Y-124968000D02*
X108966000Y-130810000D01*
G04 #@! TO.N,/AD2*
X109728000Y-122428000D02*
X109728000Y-128270000D01*
G04 #@! TO.N,/AD3*
X110490000Y-125730000D02*
X110490000Y-119888000D01*
G04 #@! TO.N,/RD*
X147320000Y-93980000D02*
X145796000Y-95504000D01*
X145796000Y-95504000D02*
X145796000Y-108458000D01*
X146812000Y-93472000D02*
X146812000Y-90170000D01*
X147320000Y-93980000D02*
X146812000Y-93472000D01*
X146812000Y-90170000D02*
X146812000Y-90170000D01*
X156972000Y-93472000D02*
X156972000Y-90170000D01*
X157480000Y-93980000D02*
X156972000Y-93472000D01*
G04 #@! TO.N,/AD4*
X111252000Y-117348000D02*
X111252000Y-123190000D01*
G04 #@! TO.N,/AD5*
X112014000Y-120650000D02*
X112014000Y-114808000D01*
G04 #@! TO.N,/HOLDA*
X147320000Y-86360000D02*
X147828000Y-86868000D01*
X147828000Y-86868000D02*
X147828000Y-91186000D01*
X147828000Y-91186000D02*
X148590000Y-91948000D01*
X148590000Y-91948000D02*
X148590000Y-95504000D01*
X148590000Y-95504000D02*
X148844000Y-95758000D01*
X148844000Y-95758000D02*
X148844000Y-110236000D01*
X148844000Y-110236000D02*
X143510000Y-115570000D01*
G04 #@! TO.N,/AD6*
X112776000Y-118110000D02*
X112776000Y-112268000D01*
G04 #@! TO.N,/WR*
X121158000Y-117348000D02*
X121158000Y-109220000D01*
X152400000Y-86360000D02*
X151892000Y-86868000D01*
X151892000Y-86868000D02*
X151892000Y-91440000D01*
X151892000Y-91440000D02*
X151130000Y-92202000D01*
X151130000Y-92202000D02*
X151130000Y-101600000D01*
X151130000Y-101600000D02*
X150622000Y-102108000D01*
X150622000Y-102108000D02*
X150622000Y-108458000D01*
X150622000Y-108458000D02*
X149860000Y-109220000D01*
X156972000Y-86868000D02*
X156972000Y-88138000D01*
X157480000Y-86360000D02*
X156972000Y-86868000D01*
G04 #@! TO.N,/AD7*
X113538000Y-109728000D02*
X113538000Y-115570000D01*
G04 #@! TO.N,/IO_M*
X121920000Y-119888000D02*
X121920000Y-109982000D01*
X144780000Y-109474000D02*
X144526000Y-109728000D01*
X144780000Y-93980000D02*
X144780000Y-109474000D01*
G04 #@! TO.N,/A8*
X159512000Y-107950000D02*
X159512000Y-112268000D01*
G04 #@! TO.N,/DTR*
X126492000Y-123190000D02*
X126492000Y-114808000D01*
G04 #@! TO.N,/A9*
X158750000Y-105410000D02*
X158750000Y-114808000D01*
G04 #@! TO.N,/DEN*
X127254000Y-116332000D02*
X127254000Y-125730000D01*
G04 #@! TO.N,/A10*
X157988000Y-102870000D02*
X157988000Y-122428000D01*
G04 #@! TO.N,/ALE*
X136398000Y-136652000D02*
X135636000Y-135890000D01*
X135636000Y-135890000D02*
X130810000Y-135890000D01*
X130810000Y-135890000D02*
X130302000Y-135382000D01*
X130302000Y-135382000D02*
X130302000Y-129032000D01*
G04 #@! TO.N,/A11*
X157226000Y-100330000D02*
X157226000Y-117348000D01*
G04 #@! TO.N,/A12*
X156464000Y-98552000D02*
X156464000Y-106172000D01*
G04 #@! TO.N,/A13*
X155702000Y-109728000D02*
X155702000Y-95758000D01*
G04 #@! TO.N,/A14*
X134366000Y-103632000D02*
X134366000Y-93218000D01*
G04 #@! TO.N,/RESET_*
X173482000Y-96012000D02*
X173482000Y-138938000D01*
X120142000Y-137160000D02*
X121920000Y-138938000D01*
X119380000Y-137160000D02*
X120142000Y-137160000D01*
G04 #@! TO.N,/IORD*
X189484000Y-90170000D02*
X194310000Y-90170000D01*
X160528000Y-93472000D02*
X160528000Y-89662000D01*
X160020000Y-93980000D02*
X160528000Y-93472000D01*
G04 #@! TO.N,/IOWR*
X189484000Y-92710000D02*
X194310000Y-92710000D01*
X154940000Y-86360000D02*
X154432000Y-86868000D01*
X154432000Y-86868000D02*
X154432000Y-88900000D01*
X184404000Y-88900000D02*
X184404000Y-92456000D01*
G04 #@! TO.N,/MRD*
X155194000Y-119888000D02*
X154940000Y-119634000D01*
X154940000Y-119634000D02*
X154940000Y-97028000D01*
X152400000Y-93980000D02*
X152908000Y-94488000D01*
X152908000Y-94488000D02*
X152908000Y-97028000D01*
G04 #@! TO.N,/MWR*
X164338000Y-107188000D02*
X164338000Y-86868000D01*
G04 #@! TO.N,/A7*
X142240000Y-116840000D02*
X144018000Y-116840000D01*
X144018000Y-116840000D02*
X151638000Y-109220000D01*
X151638000Y-109220000D02*
X152400000Y-109220000D01*
X189484000Y-95250000D02*
X194310000Y-95250000D01*
X176784000Y-108712000D02*
X176784000Y-96012000D01*
G04 #@! TO.N,/A6*
X151638000Y-111760000D02*
X152400000Y-111760000D01*
X142240000Y-119380000D02*
X144018000Y-119380000D01*
X144018000Y-119380000D02*
X151638000Y-111760000D01*
X189484000Y-97790000D02*
X194310000Y-97790000D01*
X177546000Y-111252000D02*
X177546000Y-97790000D01*
G04 #@! TO.N,/A5*
X142240000Y-121920000D02*
X144018000Y-121920000D01*
X144018000Y-121920000D02*
X151638000Y-114300000D01*
X151638000Y-114300000D02*
X152400000Y-114300000D01*
X189484000Y-100330000D02*
X194310000Y-100330000D01*
X178308000Y-113792000D02*
X178308000Y-99060000D01*
G04 #@! TO.N,/A4*
X144018000Y-124460000D02*
X151638000Y-116840000D01*
X142240000Y-124460000D02*
X144018000Y-124460000D01*
X151638000Y-116840000D02*
X152400000Y-116840000D01*
X174498000Y-102870000D02*
X174498000Y-116332000D01*
X189484000Y-102870000D02*
X194310000Y-102870000D01*
G04 #@! TO.N,/A3*
X144018000Y-127000000D02*
X151638000Y-119380000D01*
X142240000Y-127000000D02*
X144018000Y-127000000D01*
X151638000Y-119380000D02*
X152400000Y-119380000D01*
X175260000Y-105410000D02*
X175260000Y-118872000D01*
X189484000Y-105410000D02*
X194310000Y-105410000D01*
G04 #@! TO.N,/A2*
X142240000Y-129540000D02*
X144018000Y-129540000D01*
X144018000Y-129540000D02*
X151638000Y-121920000D01*
X151638000Y-121920000D02*
X152400000Y-121920000D01*
X176022000Y-107950000D02*
X176022000Y-121412000D01*
X189484000Y-107950000D02*
X194310000Y-107950000D01*
G04 #@! TO.N,/A1*
X142240000Y-132080000D02*
X144018000Y-132080000D01*
X144018000Y-132080000D02*
X151638000Y-124460000D01*
X151638000Y-124460000D02*
X152400000Y-124460000D01*
X176784000Y-110490000D02*
X176784000Y-123952000D01*
X189484000Y-110490000D02*
X194310000Y-110490000D01*
G04 #@! TO.N,/A0*
X151638000Y-127000000D02*
X152400000Y-127000000D01*
X144018000Y-134620000D02*
X151638000Y-127000000D01*
X142240000Y-134620000D02*
X144018000Y-134620000D01*
X177546000Y-113030000D02*
X177546000Y-126492000D01*
X189484000Y-113030000D02*
X194310000Y-113030000D01*
G04 #@! TO.N,/D7*
X160274000Y-118110000D02*
X160274000Y-127508000D01*
X178308000Y-115570000D02*
X178308000Y-127508000D01*
X189484000Y-115570000D02*
X194310000Y-115570000D01*
G04 #@! TO.N,/D6*
X159512000Y-120650000D02*
X159512000Y-130048000D01*
X179070000Y-118110000D02*
X179070000Y-130048000D01*
X189484000Y-118110000D02*
X194310000Y-118110000D01*
G04 #@! TO.N,/D5*
X158750000Y-123190000D02*
X158750000Y-132588000D01*
X179832000Y-120650000D02*
X179832000Y-132588000D01*
X189484000Y-120650000D02*
X194310000Y-120650000D01*
G04 #@! TO.N,/D4*
X157988000Y-125730000D02*
X157988000Y-135128000D01*
X180594000Y-123190000D02*
X180594000Y-135128000D01*
X189484000Y-123190000D02*
X194310000Y-123190000D01*
G04 #@! TO.N,/D3*
X157226000Y-128270000D02*
X157226000Y-137668000D01*
X181356000Y-125730000D02*
X181356000Y-137668000D01*
X189484000Y-125730000D02*
X194310000Y-125730000D01*
G04 #@! TO.N,/D2*
X156464000Y-130810000D02*
X156464000Y-134112000D01*
X182118000Y-128270000D02*
X182118000Y-134112000D01*
X189484000Y-128270000D02*
X194310000Y-128270000D01*
G04 #@! TO.N,/D1*
X189484000Y-130810000D02*
X194310000Y-130810000D01*
G04 #@! TO.N,/D0*
X154940000Y-135890000D02*
X154940000Y-129032000D01*
X183642000Y-133350000D02*
X183642000Y-129032000D01*
X189484000Y-133350000D02*
X194310000Y-133350000D01*
G04 #@! TO.N,/RESET*
X137184000Y-97004000D02*
X137160000Y-97028000D01*
X137184000Y-91440000D02*
X137184000Y-92686000D01*
X137184000Y-92686000D02*
X137184000Y-97004000D01*
X174752000Y-93472000D02*
X175260000Y-93980000D01*
X174752000Y-92202000D02*
X174752000Y-93472000D01*
G04 #@! TO.N,/A15_*
X172720000Y-124968000D02*
X172720000Y-93980000D01*
G04 #@! TD*
M02*
