M48
; DRILL file {KiCad (5.1.8)-1} date 04/17/24 03:42:16
; FORMAT={-:-/ absolute / inch / decimal}
; #@! TF.CreationDate,2024-04-17T03:42:16-06:00
; #@! TF.GenerationSoftware,Kicad,Pcbnew,(5.1.8)-1
; #@! TF.FileFunction,Plated,1,2,PTH
FMAT,2
INCH
T1C0.0157
T2C0.0236
T3C0.0315
T4C0.0433
%
G90
G05
T1
X4.26Y-5.02
X4.26Y-5.25
X4.29Y-4.92
X4.29Y-5.15
X4.32Y-4.82
X4.32Y-5.05
X4.35Y-4.72
X4.35Y-4.95
X4.38Y-4.62
X4.38Y-4.85
X4.41Y-4.52
X4.41Y-4.75
X4.44Y-4.42
X4.44Y-4.65
X4.47Y-4.32
X4.47Y-4.55
X4.52Y-3.5
X4.52Y-4.4
X4.52Y-5.1
X4.52Y-5.2
X4.52Y-5.42
X4.61Y-4.18
X4.61Y-5.28
X4.61Y-5.51
X4.77Y-4.3
X4.77Y-4.62
X4.78Y-3.36
X4.78Y-3.78
X4.78Y-4.18
X4.8Y-4.33
X4.8Y-4.72
X4.8Y-5.47
X4.98Y-4.52
X4.98Y-4.85
X5.01Y-4.58
X5.01Y-4.95
X5.1Y-3.82
X5.1Y-5.35
X5.13Y-5.08
X5.265Y-4.415
X5.29Y-3.67
X5.29Y-4.08
X5.37Y-5.38
X5.4009Y-3.6491
X5.42Y-5.42
X5.46Y-3.43
X5.6Y-3.33
X5.65Y-4.55
X5.69Y-4.32
X5.74Y-4.27
X5.78Y-3.55
X5.9Y-3.33
X5.9Y-3.82
X5.9Y-4.3
X5.98Y-3.47
X6.02Y-3.82
X6.08Y-3.5
X6.1Y-3.82
X6.1Y-5.08
X6.1Y-5.35
X6.11Y-4.72
X6.13Y-3.77
X6.13Y-4.32
X6.15Y-3.33
X6.16Y-3.88
X6.16Y-4.18
X6.16Y-5.15
X6.16Y-5.28
X6.18Y-3.47
X6.18Y-3.55
X6.19Y-3.95
X6.19Y-4.62
X6.19Y-5.05
X6.19Y-5.42
X6.22Y-4.05
X6.22Y-4.82
X6.22Y-4.95
X6.22Y-5.32
X6.25Y-4.15
X6.25Y-4.52
X6.25Y-4.85
X6.25Y-5.22
X6.28Y-4.25
X6.28Y-4.42
X6.28Y-4.75
X6.28Y-5.12
X6.3Y-3.33
X6.31Y-4.65
X6.31Y-5.02
X6.32Y-3.53
X6.4Y-3.59
X6.41Y-5.38
X6.47Y-3.42
X6.47Y-4.22
X6.58Y-3.33
X6.68Y-3.55
X6.77Y-4.95
X6.8Y-4.92
X6.83Y-3.78
X6.83Y-5.47
X6.87Y-4.05
X6.87Y-4.58
X6.88Y-3.63
X6.9Y-4.15
X6.9Y-4.68
X6.93Y-4.25
X6.93Y-4.78
X6.96Y-3.78
X6.96Y-4.28
X6.96Y-4.35
X6.96Y-4.88
X6.99Y-3.85
X6.99Y-4.38
X6.99Y-4.45
X6.99Y-4.98
X7.02Y-3.9
X7.02Y-4.48
X7.02Y-4.55
X7.02Y-5.02
X7.05Y-4.65
X7.05Y-5.12
X7.08Y-4.75
X7.08Y-5.22
X7.11Y-4.85
X7.11Y-5.32
X7.14Y-4.95
X7.14Y-5.42
X7.17Y-5.05
X7.17Y-5.28
X7.23Y-5.08
X7.23Y-5.25
X7.24Y-4.0
X7.26Y-3.5
X7.26Y-3.64
X7.3Y-3.59
X7.36Y-3.45
X7.46Y-3.35
X7.46Y-3.45
X7.46Y-3.55
X7.46Y-3.65
X7.46Y-3.75
X7.46Y-3.85
X7.46Y-3.95
X7.46Y-4.05
X7.46Y-4.15
X7.46Y-4.25
X7.46Y-4.35
X7.46Y-4.45
X7.46Y-4.55
X7.46Y-4.65
X7.46Y-4.75
X7.46Y-4.85
X7.46Y-4.95
X7.46Y-5.05
X7.46Y-5.15
X7.46Y-5.25
X7.46Y-5.35
X7.46Y-5.45
T2
X5.4Y-3.6
X5.4591Y-3.6
T3
X5.3Y-4.5
X5.3Y-4.6
X5.3Y-4.7
X5.3Y-4.8
X5.3Y-4.9
X5.3Y-5.0
X5.3Y-5.1
X5.3Y-5.2
X5.3Y-5.3
X5.3Y-5.4
X5.6Y-4.5
X5.6Y-4.6
X5.6Y-4.7
X5.6Y-4.8
X5.6Y-4.9
X5.6Y-5.0
X5.6Y-5.1
X5.6Y-5.2
X5.6Y-5.3
X5.6Y-5.4
X7.1031Y-3.98
X7.3Y-3.98
X6.58Y-3.4
X6.58Y-3.5969
X4.1Y-3.5
X4.1Y-3.6
X4.1Y-3.7
X4.1Y-3.8
X4.1Y-3.9
X4.1Y-4.0
X4.1Y-4.1
X4.1Y-4.2
X4.1Y-4.3
X4.1Y-4.4
X4.1Y-4.5
X4.1Y-4.6
X4.1Y-4.7
X4.1Y-4.8
X4.1Y-4.9
X4.1Y-5.0
X4.1Y-5.1
X4.1Y-5.2
X4.1Y-5.3
X4.1Y-5.4
X4.7Y-3.5
X4.7Y-3.6
X4.7Y-3.7
X4.7Y-3.8
X4.7Y-3.9
X4.7Y-4.0
X4.7Y-4.1
X4.7Y-4.2
X4.7Y-4.3
X4.7Y-4.4
X4.7Y-4.5
X4.7Y-4.6
X4.7Y-4.7
X4.7Y-4.8
X4.7Y-4.9
X4.7Y-5.0
X4.7Y-5.1
X4.7Y-5.2
X4.7Y-5.3
X4.7Y-5.4
X4.9Y-4.5
X4.9Y-4.6
X4.9Y-4.7
X4.9Y-4.8
X4.9Y-4.9
X4.9Y-5.0
X4.9Y-5.1
X4.9Y-5.2
X4.9Y-5.3
X4.9Y-5.4
X5.2Y-4.5
X5.2Y-4.6
X5.2Y-4.7
X5.2Y-4.8
X5.2Y-4.9
X5.2Y-5.0
X5.2Y-5.1
X5.2Y-5.2
X5.2Y-5.3
X5.2Y-5.4
X5.0031Y-4.38
X5.2Y-4.38
X4.9Y-3.8
X4.9Y-4.1
X5.2Y-3.8
X5.2Y-4.1
X6.0Y-4.1
X6.0Y-4.2
X6.0Y-4.3
X6.0Y-4.4
X6.0Y-4.5
X6.0Y-4.6
X6.0Y-4.7
X6.0Y-4.8
X6.0Y-4.9
X6.0Y-5.0
X6.0Y-5.1
X6.0Y-5.2
X6.0Y-5.3
X6.0Y-5.4
X6.6Y-4.1
X6.6Y-4.2
X6.6Y-4.3
X6.6Y-4.4
X6.6Y-4.5
X6.6Y-4.6
X6.6Y-4.7
X6.6Y-4.8
X6.6Y-4.9
X6.6Y-5.0
X6.6Y-5.1
X6.6Y-5.2
X6.6Y-5.3
X6.6Y-5.4
X6.7Y-3.4
X6.7Y-3.7
X6.8Y-3.4
X6.8Y-3.7
X6.9Y-3.4
X6.9Y-3.7
X7.0Y-3.4
X7.0Y-3.7
X7.1Y-3.4
X7.1Y-3.7
X7.2Y-3.4
X7.2Y-3.7
X7.3Y-3.4
X7.3Y-3.7
X4.5031Y-3.38
X4.7Y-3.38
X5.7Y-3.4
X5.7Y-3.7
X5.8Y-3.4
X5.8Y-3.7
X5.9Y-3.4
X5.9Y-3.7
X6.0Y-3.4
X6.0Y-3.7
X6.1Y-3.4
X6.1Y-3.7
X6.2Y-3.4
X6.2Y-3.7
X6.3Y-3.4
X6.3Y-3.7
X6.4Y-3.4
X6.4Y-3.7
X6.7Y-4.1
X6.7Y-4.2
X6.7Y-4.3
X6.7Y-4.4
X6.7Y-4.5
X6.7Y-4.6
X6.7Y-4.7
X6.7Y-4.8
X6.7Y-4.9
X6.7Y-5.0
X6.7Y-5.1
X6.7Y-5.2
X6.7Y-5.3
X6.7Y-5.4
X7.3Y-4.1
X7.3Y-4.2
X7.3Y-4.3
X7.3Y-4.4
X7.3Y-4.5
X7.3Y-4.6
X7.3Y-4.7
X7.3Y-4.8
X7.3Y-4.9
X7.3Y-5.0
X7.3Y-5.1
X7.3Y-5.2
X7.3Y-5.3
X7.3Y-5.4
X5.4Y-3.82
X5.8Y-3.82
X5.4031Y-4.38
X5.6Y-4.38
X5.58Y-3.4
X5.58Y-3.5969
X6.4031Y-3.98
X6.6Y-3.98
T4
X4.9441Y-3.4228
X4.9441Y-3.6
X5.2Y-3.4228
X5.2Y-3.6
T0
M30
