M48
; DRILL file {KiCad (5.1.8)-1} date 04/11/24 16:50:32
; FORMAT={-:-/ absolute / inch / decimal}
; #@! TF.CreationDate,2024-04-11T16:50:32-06:00
; #@! TF.GenerationSoftware,Kicad,Pcbnew,(5.1.8)-1
; #@! TF.FileFunction,Plated,1,2,PTH
FMAT,2
INCH
T1C0.0157
T2C0.0236
T3C0.0300
T4C0.0394
%
G90
G05
T1
X3.88Y-0.61
X3.88Y-0.78
X3.88Y-1.04
X4.04Y-0.58
X4.04Y-0.82
X4.04Y-1.6
X4.04Y-3.5
X4.08Y-1.15
X4.08Y-1.5
X4.08Y-3.6
X3.9369Y-0.58
X3.9369Y-0.6135
X3.9369Y-0.6469
X3.9369Y-0.6804
X3.9369Y-0.7139
X3.9369Y-0.7473
X3.9369Y-0.7808
X3.9369Y-0.8143
X3.99Y-0.58
X3.99Y-0.6135
X3.99Y-0.6469
X3.99Y-0.6804
X3.99Y-0.7139
X3.99Y-0.7473
X3.99Y-0.7808
X3.99Y-0.8143
T3
X3.7038Y-1.04
X3.7038Y-1.1384
X3.7038Y-1.2369
X3.94Y-1.04
X3.94Y-1.1384
X3.94Y-1.2369
X3.95Y-1.5
X3.95Y-1.6
X3.95Y-1.7
X3.95Y-1.8
X3.95Y-1.9
X3.95Y-2.0
X3.95Y-2.1
X3.95Y-2.2
X3.95Y-2.3
X3.95Y-2.4
X3.95Y-2.5
X3.95Y-2.6
X3.95Y-2.7
X3.95Y-2.8
X3.95Y-2.9
X3.95Y-3.0
X3.95Y-3.1
X3.95Y-3.2
X3.95Y-3.3
X3.95Y-3.4
X3.95Y-3.5
X3.95Y-3.6
X4.15Y-1.5
X4.15Y-1.6
X4.15Y-1.7
X4.15Y-1.8
X4.15Y-1.9
X4.15Y-2.0
X4.15Y-2.1
X4.15Y-2.2
X4.15Y-2.3
X4.15Y-2.4
X4.15Y-2.5
X4.15Y-2.6
X4.15Y-2.7
X4.15Y-2.8
X4.15Y-2.9
X4.15Y-3.0
X4.15Y-3.1
X4.15Y-3.2
X4.15Y-3.3
X4.15Y-3.4
X4.15Y-3.5
X4.15Y-3.6
T4
X3.69Y-1.5
X3.69Y-1.6
X3.69Y-1.7
X3.69Y-1.8
X3.69Y-1.9
X3.69Y-2.0
X3.69Y-2.1
X3.69Y-2.2
X3.69Y-2.3
X3.69Y-2.4
X3.69Y-2.5
X3.69Y-2.6
X3.69Y-2.7
X3.69Y-2.8
X3.69Y-2.9
X3.69Y-3.0
X3.69Y-3.1
X3.69Y-3.2
X3.69Y-3.3
X3.69Y-3.4
X3.69Y-3.5
X3.69Y-3.6
X4.4Y-1.5
X4.4Y-1.6
X4.4Y-1.7
X4.4Y-1.8
X4.4Y-1.9
X4.4Y-2.0
X4.4Y-2.1
X4.4Y-2.2
X4.4Y-2.3
X4.4Y-2.4
X4.4Y-2.5
X4.4Y-2.6
X4.4Y-2.7
X4.4Y-2.8
X4.4Y-2.9
X4.4Y-3.0
X4.4Y-3.1
X4.4Y-3.2
X4.4Y-3.3
X4.4Y-3.4
X4.4Y-3.5
X4.4Y-3.6
T2
G00X3.8341Y-0.5269
M15
G01X3.8026Y-0.5269
M16
G05
G00X3.8341Y-0.8674
M15
G01X3.8026Y-0.8674
M16
G05
G00X3.9809Y-0.5269
M15
G01X3.9219Y-0.5269
M16
G05
G00X3.9809Y-0.8674
M15
G01X3.9219Y-0.8674
M16
G05
T0
M30
