G04 #@! TF.GenerationSoftware,KiCad,Pcbnew,(5.1.8)-1*
G04 #@! TF.CreationDate,2024-04-11T16:50:30-06:00*
G04 #@! TF.ProjectId,Breadboard Adapter,42726561-6462-46f6-9172-642041646170,rev?*
G04 #@! TF.SameCoordinates,Original*
G04 #@! TF.FileFunction,Copper,L1,Top*
G04 #@! TF.FilePolarity,Positive*
%FSLAX46Y46*%
G04 Gerber Fmt 4.6, Leading zero omitted, Abs format (unit mm)*
G04 Created by KiCad (PCBNEW (5.1.8)-1) date 2024-04-11 16:50:30*
%MOMM*%
%LPD*%
G01*
G04 APERTURE LIST*
G04 #@! TA.AperFunction,ComponentPad*
%ADD10C,1.524000*%
G04 #@! TD*
G04 #@! TA.AperFunction,ComponentPad*
%ADD11R,1.524000X1.524000*%
G04 #@! TD*
G04 #@! TA.AperFunction,ComponentPad*
%ADD12O,1.700000X1.700000*%
G04 #@! TD*
G04 #@! TA.AperFunction,ComponentPad*
%ADD13R,1.700000X1.700000*%
G04 #@! TD*
G04 #@! TA.AperFunction,ComponentPad*
%ADD14O,1.700000X0.900000*%
G04 #@! TD*
G04 #@! TA.AperFunction,ComponentPad*
%ADD15O,2.400000X0.900000*%
G04 #@! TD*
G04 #@! TA.AperFunction,ComponentPad*
%ADD16C,0.700000*%
G04 #@! TD*
G04 #@! TA.AperFunction,ViaPad*
%ADD17C,0.800000*%
G04 #@! TD*
G04 #@! TA.AperFunction,Conductor*
%ADD18C,0.330200*%
G04 #@! TD*
G04 #@! TA.AperFunction,Conductor*
%ADD19C,0.250000*%
G04 #@! TD*
G04 APERTURE END LIST*
D10*
G04 #@! TO.P,J1,44*
G04 #@! TO.N,/5+*
X105410000Y-38100000D03*
G04 #@! TO.P,J1,43*
G04 #@! TO.N,/GND*
X105410000Y-40640000D03*
G04 #@! TO.P,J1,42*
G04 #@! TO.N,/IORD*
X105410000Y-43180000D03*
G04 #@! TO.P,J1,41*
G04 #@! TO.N,/IOWR*
X105410000Y-45720000D03*
G04 #@! TO.P,J1,40*
G04 #@! TO.N,/A7*
X105410000Y-48260000D03*
G04 #@! TO.P,J1,39*
G04 #@! TO.N,/A6*
X105410000Y-50800000D03*
G04 #@! TO.P,J1,38*
G04 #@! TO.N,/A5*
X105410000Y-53340000D03*
G04 #@! TO.P,J1,37*
G04 #@! TO.N,/A4*
X105410000Y-55880000D03*
G04 #@! TO.P,J1,36*
G04 #@! TO.N,/A3*
X105410000Y-58420000D03*
G04 #@! TO.P,J1,35*
G04 #@! TO.N,/A2*
X105410000Y-60960000D03*
G04 #@! TO.P,J1,34*
G04 #@! TO.N,/A1*
X105410000Y-63500000D03*
G04 #@! TO.P,J1,33*
G04 #@! TO.N,/A0*
X105410000Y-66040000D03*
G04 #@! TO.P,J1,32*
G04 #@! TO.N,/D7*
X105410000Y-68580000D03*
G04 #@! TO.P,J1,31*
G04 #@! TO.N,/D6*
X105410000Y-71120000D03*
G04 #@! TO.P,J1,30*
G04 #@! TO.N,/D5*
X105410000Y-73660000D03*
G04 #@! TO.P,J1,29*
G04 #@! TO.N,/D4*
X105410000Y-76200000D03*
G04 #@! TO.P,J1,28*
G04 #@! TO.N,/D3*
X105410000Y-78740000D03*
G04 #@! TO.P,J1,27*
G04 #@! TO.N,/D2*
X105410000Y-81280000D03*
G04 #@! TO.P,J1,26*
G04 #@! TO.N,/D1*
X105410000Y-83820000D03*
G04 #@! TO.P,J1,25*
G04 #@! TO.N,/D0*
X105410000Y-86360000D03*
G04 #@! TO.P,J1,24*
G04 #@! TO.N,/GND*
X105410000Y-88900000D03*
G04 #@! TO.P,J1,23*
G04 #@! TO.N,/5+*
X105410000Y-91440000D03*
G04 #@! TO.P,J1,22*
X100330000Y-91440000D03*
G04 #@! TO.P,J1,21*
G04 #@! TO.N,/GND*
X100330000Y-88900000D03*
G04 #@! TO.P,J1,20*
G04 #@! TO.N,/D0_*
X100330000Y-86360000D03*
G04 #@! TO.P,J1,19*
G04 #@! TO.N,/D1_*
X100330000Y-83820000D03*
G04 #@! TO.P,J1,18*
G04 #@! TO.N,/D2_*
X100330000Y-81280000D03*
G04 #@! TO.P,J1,17*
G04 #@! TO.N,/D3_*
X100330000Y-78740000D03*
G04 #@! TO.P,J1,15*
G04 #@! TO.N,/D5_*
X100330000Y-73660000D03*
G04 #@! TO.P,J1,14*
G04 #@! TO.N,/D6_*
X100330000Y-71120000D03*
G04 #@! TO.P,J1,13*
G04 #@! TO.N,/D7_*
X100330000Y-68580000D03*
G04 #@! TO.P,J1,12*
G04 #@! TO.N,/A0_*
X100330000Y-66040000D03*
G04 #@! TO.P,J1,11*
G04 #@! TO.N,/A1_*
X100330000Y-63500000D03*
G04 #@! TO.P,J1,10*
G04 #@! TO.N,/A2_*
X100330000Y-60960000D03*
G04 #@! TO.P,J1,9*
G04 #@! TO.N,/A3_*
X100330000Y-58420000D03*
G04 #@! TO.P,J1,16*
G04 #@! TO.N,/D4_*
X100330000Y-76200000D03*
D11*
G04 #@! TO.P,J1,1*
G04 #@! TO.N,/5+*
X100330000Y-38100000D03*
D10*
G04 #@! TO.P,J1,2*
G04 #@! TO.N,/GND*
X100330000Y-40640000D03*
G04 #@! TO.P,J1,3*
G04 #@! TO.N,/IORD_*
X100330000Y-43180000D03*
G04 #@! TO.P,J1,4*
G04 #@! TO.N,/IOWR_*
X100330000Y-45720000D03*
G04 #@! TO.P,J1,5*
G04 #@! TO.N,/A7_*
X100330000Y-48260000D03*
G04 #@! TO.P,J1,6*
G04 #@! TO.N,/A6_*
X100330000Y-50800000D03*
G04 #@! TO.P,J1,7*
G04 #@! TO.N,/A5_*
X100330000Y-53340000D03*
G04 #@! TO.P,J1,8*
G04 #@! TO.N,/A4_*
X100330000Y-55880000D03*
G04 #@! TD*
D12*
G04 #@! TO.P,J4,22*
G04 #@! TO.N,/5+*
X111760000Y-91440000D03*
G04 #@! TO.P,J4,21*
G04 #@! TO.N,/GND*
X111760000Y-88900000D03*
G04 #@! TO.P,J4,20*
G04 #@! TO.N,/D0*
X111760000Y-86360000D03*
G04 #@! TO.P,J4,19*
G04 #@! TO.N,/D1*
X111760000Y-83820000D03*
G04 #@! TO.P,J4,18*
G04 #@! TO.N,/D2*
X111760000Y-81280000D03*
G04 #@! TO.P,J4,17*
G04 #@! TO.N,/D3*
X111760000Y-78740000D03*
G04 #@! TO.P,J4,16*
G04 #@! TO.N,/D4*
X111760000Y-76200000D03*
G04 #@! TO.P,J4,15*
G04 #@! TO.N,/D5*
X111760000Y-73660000D03*
G04 #@! TO.P,J4,14*
G04 #@! TO.N,/D6*
X111760000Y-71120000D03*
G04 #@! TO.P,J4,13*
G04 #@! TO.N,/D7*
X111760000Y-68580000D03*
G04 #@! TO.P,J4,12*
G04 #@! TO.N,/A0*
X111760000Y-66040000D03*
G04 #@! TO.P,J4,11*
G04 #@! TO.N,/A1*
X111760000Y-63500000D03*
G04 #@! TO.P,J4,10*
G04 #@! TO.N,/A2*
X111760000Y-60960000D03*
G04 #@! TO.P,J4,9*
G04 #@! TO.N,/A3*
X111760000Y-58420000D03*
G04 #@! TO.P,J4,8*
G04 #@! TO.N,/A4*
X111760000Y-55880000D03*
G04 #@! TO.P,J4,7*
G04 #@! TO.N,/A5*
X111760000Y-53340000D03*
G04 #@! TO.P,J4,6*
G04 #@! TO.N,/A6*
X111760000Y-50800000D03*
G04 #@! TO.P,J4,5*
G04 #@! TO.N,/A7*
X111760000Y-48260000D03*
G04 #@! TO.P,J4,4*
G04 #@! TO.N,/IOWR*
X111760000Y-45720000D03*
G04 #@! TO.P,J4,3*
G04 #@! TO.N,/IORD*
X111760000Y-43180000D03*
G04 #@! TO.P,J4,2*
G04 #@! TO.N,/GND*
X111760000Y-40640000D03*
D13*
G04 #@! TO.P,J4,1*
G04 #@! TO.N,/5+*
X111760000Y-38100000D03*
G04 #@! TD*
D12*
G04 #@! TO.P,J3,22*
G04 #@! TO.N,/5+*
X93726000Y-91440000D03*
G04 #@! TO.P,J3,21*
G04 #@! TO.N,/GND*
X93726000Y-88900000D03*
G04 #@! TO.P,J3,20*
G04 #@! TO.N,/D0_*
X93726000Y-86360000D03*
G04 #@! TO.P,J3,19*
G04 #@! TO.N,/D1_*
X93726000Y-83820000D03*
G04 #@! TO.P,J3,18*
G04 #@! TO.N,/D2_*
X93726000Y-81280000D03*
G04 #@! TO.P,J3,17*
G04 #@! TO.N,/D3_*
X93726000Y-78740000D03*
G04 #@! TO.P,J3,16*
G04 #@! TO.N,/D4_*
X93726000Y-76200000D03*
G04 #@! TO.P,J3,15*
G04 #@! TO.N,/D5_*
X93726000Y-73660000D03*
G04 #@! TO.P,J3,14*
G04 #@! TO.N,/D6_*
X93726000Y-71120000D03*
G04 #@! TO.P,J3,13*
G04 #@! TO.N,/D7_*
X93726000Y-68580000D03*
G04 #@! TO.P,J3,12*
G04 #@! TO.N,/A0_*
X93726000Y-66040000D03*
G04 #@! TO.P,J3,11*
G04 #@! TO.N,/A1_*
X93726000Y-63500000D03*
G04 #@! TO.P,J3,10*
G04 #@! TO.N,/A2_*
X93726000Y-60960000D03*
G04 #@! TO.P,J3,9*
G04 #@! TO.N,/A3_*
X93726000Y-58420000D03*
G04 #@! TO.P,J3,8*
G04 #@! TO.N,/A4_*
X93726000Y-55880000D03*
G04 #@! TO.P,J3,7*
G04 #@! TO.N,/A5_*
X93726000Y-53340000D03*
G04 #@! TO.P,J3,6*
G04 #@! TO.N,/A6_*
X93726000Y-50800000D03*
G04 #@! TO.P,J3,5*
G04 #@! TO.N,/A7_*
X93726000Y-48260000D03*
G04 #@! TO.P,J3,4*
G04 #@! TO.N,/IOWR_*
X93726000Y-45720000D03*
G04 #@! TO.P,J3,3*
G04 #@! TO.N,/IORD_*
X93726000Y-43180000D03*
G04 #@! TO.P,J3,2*
G04 #@! TO.N,/GND*
X93726000Y-40640000D03*
D13*
G04 #@! TO.P,J3,1*
G04 #@! TO.N,/5+*
X93726000Y-38100000D03*
G04 #@! TD*
D10*
G04 #@! TO.P,SW1,6*
G04 #@! TO.N,Net-(SW1-Pad6)*
X94076000Y-31416000D03*
G04 #@! TO.P,SW1,5*
G04 #@! TO.N,Net-(SW1-Pad5)*
X94076000Y-28916000D03*
G04 #@! TO.P,SW1,4*
G04 #@! TO.N,Net-(SW1-Pad4)*
X94076000Y-26416000D03*
G04 #@! TO.P,SW1,3*
G04 #@! TO.N,/POWER_SUPPLY*
X100076000Y-26416000D03*
G04 #@! TO.P,SW1,2*
G04 #@! TO.N,/5+*
X100076000Y-28916000D03*
G04 #@! TO.P,SW1,1*
G04 #@! TO.N,Net-(SW1-Pad1)*
X100076000Y-31416000D03*
G04 #@! TD*
D14*
G04 #@! TO.P,J2,S1*
G04 #@! TO.N,Net-(J2-PadS1)*
X96986000Y-22032000D03*
X96986000Y-13382000D03*
D15*
X100366000Y-22032000D03*
X100366000Y-13382000D03*
D16*
G04 #@! TO.P,J2,B6*
G04 #@! TO.N,Net-(J2-PadB6)*
X99996000Y-18132000D03*
G04 #@! TO.P,J2,B1*
G04 #@! TO.N,/GND*
X99996000Y-20682000D03*
G04 #@! TO.P,J2,B4*
G04 #@! TO.N,/POWER_SUPPLY*
X99996000Y-19832000D03*
G04 #@! TO.P,J2,B5*
G04 #@! TO.N,Net-(J2-PadB5)*
X99996000Y-18982000D03*
G04 #@! TO.P,J2,B12*
G04 #@! TO.N,/GND*
X99996000Y-14732000D03*
G04 #@! TO.P,J2,B8*
G04 #@! TO.N,Net-(J2-PadB8)*
X99996000Y-16432000D03*
G04 #@! TO.P,J2,B7*
G04 #@! TO.N,Net-(J2-PadB7)*
X99996000Y-17282000D03*
G04 #@! TO.P,J2,B9*
G04 #@! TO.N,/POWER_SUPPLY*
X99996000Y-15582000D03*
G04 #@! TO.P,J2,A12*
G04 #@! TO.N,/GND*
X101346000Y-20682000D03*
G04 #@! TO.P,J2,A9*
G04 #@! TO.N,/POWER_SUPPLY*
X101346000Y-19832000D03*
G04 #@! TO.P,J2,A8*
G04 #@! TO.N,Net-(J2-PadA8)*
X101346000Y-18982000D03*
G04 #@! TO.P,J2,A7*
G04 #@! TO.N,Net-(J2-PadA7)*
X101346000Y-18132000D03*
G04 #@! TO.P,J2,A6*
G04 #@! TO.N,Net-(J2-PadA6)*
X101346000Y-17282000D03*
G04 #@! TO.P,J2,A5*
G04 #@! TO.N,Net-(J2-PadA5)*
X101346000Y-16432000D03*
G04 #@! TO.P,J2,A4*
G04 #@! TO.N,/POWER_SUPPLY*
X101346000Y-15582000D03*
G04 #@! TO.P,J2,A1*
G04 #@! TO.N,/GND*
X101346000Y-14732000D03*
G04 #@! TD*
D17*
G04 #@! TO.N,/GND*
X102616000Y-14732000D03*
X102616000Y-20828000D03*
X102616000Y-88900000D03*
X102616000Y-40640000D03*
G04 #@! TO.N,/POWER_SUPPLY*
X98552000Y-26416000D03*
X98552000Y-19812000D03*
X98552000Y-15494000D03*
G04 #@! TO.N,/5+*
X103632000Y-29210000D03*
X103632000Y-91440000D03*
X103632000Y-38100000D03*
G04 #@! TD*
D18*
G04 #@! TO.N,/GND*
X102616000Y-14732000D02*
X101346000Y-14732000D01*
X101346000Y-14732000D02*
X99996000Y-14732000D01*
X101492000Y-20828000D02*
X101346000Y-20682000D01*
X102616000Y-20828000D02*
X101492000Y-20828000D01*
X101346000Y-20682000D02*
X99996000Y-20682000D01*
X99996000Y-20682000D02*
X99968000Y-20682000D01*
X93980000Y-88900000D02*
X100330000Y-88900000D01*
X100330000Y-40640000D02*
X93980000Y-40640000D01*
X100330000Y-88900000D02*
X102616000Y-88900000D01*
X102616000Y-88900000D02*
X105410000Y-88900000D01*
X105410000Y-88900000D02*
X111760000Y-88900000D01*
X105410000Y-40640000D02*
X111760000Y-40640000D01*
X100330000Y-40640000D02*
X105410000Y-40640000D01*
D19*
G04 #@! TO.N,Net-(J2-PadS1)*
X100366000Y-22032000D02*
X96986000Y-22032000D01*
X96986000Y-13382000D02*
X100366000Y-13382000D01*
D18*
G04 #@! TO.N,/POWER_SUPPLY*
X99996000Y-19832000D02*
X101346000Y-19832000D01*
X99996000Y-15582000D02*
X101346000Y-15582000D01*
X98552000Y-26416000D02*
X100076000Y-26416000D01*
X99996000Y-19832000D02*
X98572000Y-19832000D01*
X99908000Y-15494000D02*
X98552000Y-15494000D01*
X99996000Y-15582000D02*
X99908000Y-15494000D01*
D19*
G04 #@! TO.N,/A0*
X105410000Y-66040000D02*
X111760000Y-66040000D01*
G04 #@! TO.N,/A1*
X105410000Y-63500000D02*
X111760000Y-63500000D01*
G04 #@! TO.N,/A2*
X105410000Y-60960000D02*
X111760000Y-60960000D01*
G04 #@! TO.N,/A3*
X105410000Y-58420000D02*
X111760000Y-58420000D01*
G04 #@! TO.N,/A4*
X105410000Y-55880000D02*
X111760000Y-55880000D01*
G04 #@! TO.N,/A5*
X105410000Y-53340000D02*
X111760000Y-53340000D01*
G04 #@! TO.N,/A6*
X105410000Y-50800000D02*
X111760000Y-50800000D01*
G04 #@! TO.N,/A7*
X105410000Y-48260000D02*
X111760000Y-48260000D01*
G04 #@! TO.N,/D0*
X105410000Y-86360000D02*
X111760000Y-86360000D01*
G04 #@! TO.N,/D1*
X105410000Y-83820000D02*
X111760000Y-83820000D01*
G04 #@! TO.N,/D2*
X105410000Y-81280000D02*
X111760000Y-81280000D01*
G04 #@! TO.N,/D3*
X105410000Y-78740000D02*
X111760000Y-78740000D01*
G04 #@! TO.N,/D4*
X105410000Y-76200000D02*
X111760000Y-76200000D01*
G04 #@! TO.N,/D5*
X105410000Y-73660000D02*
X111760000Y-73660000D01*
G04 #@! TO.N,/D6*
X105410000Y-71120000D02*
X111760000Y-71120000D01*
G04 #@! TO.N,/D7*
X105410000Y-68580000D02*
X111760000Y-68580000D01*
D18*
G04 #@! TO.N,/5+*
X105410000Y-38100000D02*
X111760000Y-38100000D01*
X100036000Y-28956000D02*
X100076000Y-28916000D01*
X100330000Y-91440000D02*
X93980000Y-91440000D01*
X105410000Y-91440000D02*
X111760000Y-91440000D01*
X100330000Y-91440000D02*
X105410000Y-91440000D01*
X100330000Y-38100000D02*
X105410000Y-38100000D01*
X100330000Y-38100000D02*
X93726000Y-38100000D01*
X100330000Y-29210000D02*
X103632000Y-29210000D01*
X100076000Y-28956000D02*
X100330000Y-29210000D01*
X100076000Y-28916000D02*
X100076000Y-28956000D01*
D19*
G04 #@! TO.N,/IORD*
X105410000Y-43180000D02*
X111760000Y-43180000D01*
G04 #@! TO.N,/IOWR*
X105410000Y-45720000D02*
X111760000Y-45720000D01*
G04 #@! TO.N,/D0_*
X100330000Y-86360000D02*
X93980000Y-86360000D01*
G04 #@! TO.N,/D1_*
X93980000Y-83820000D02*
X100330000Y-83820000D01*
G04 #@! TO.N,/D2_*
X100330000Y-81280000D02*
X93980000Y-81280000D01*
G04 #@! TO.N,/D3_*
X93980000Y-78740000D02*
X100330000Y-78740000D01*
G04 #@! TO.N,/D5_*
X93980000Y-73660000D02*
X100330000Y-73660000D01*
G04 #@! TO.N,/D6_*
X100330000Y-71120000D02*
X93980000Y-71120000D01*
G04 #@! TO.N,/D7_*
X93980000Y-68580000D02*
X100330000Y-68580000D01*
G04 #@! TO.N,/A0_*
X100330000Y-66040000D02*
X93980000Y-66040000D01*
G04 #@! TO.N,/A1_*
X93980000Y-63500000D02*
X100330000Y-63500000D01*
D18*
G04 #@! TO.N,/A2_*
X93980000Y-60960000D02*
X100330000Y-60960000D01*
G04 #@! TO.N,/A3_*
X93980000Y-58420000D02*
X100330000Y-58420000D01*
D19*
G04 #@! TO.N,/D4_*
X100330000Y-76200000D02*
X93980000Y-76200000D01*
G04 #@! TO.N,/IORD_*
X93980000Y-43180000D02*
X100330000Y-43180000D01*
G04 #@! TO.N,/IOWR_*
X100330000Y-45720000D02*
X93980000Y-45720000D01*
G04 #@! TO.N,/A7_*
X93980000Y-48260000D02*
X100330000Y-48260000D01*
G04 #@! TO.N,/A6_*
X100330000Y-50800000D02*
X93980000Y-50800000D01*
D18*
G04 #@! TO.N,/A5_*
X93980000Y-53340000D02*
X100330000Y-53340000D01*
D19*
G04 #@! TO.N,/A4_*
X100330000Y-55880000D02*
X93980000Y-55880000D01*
G04 #@! TD*
M02*
